<svg xmlns="http://www.w3.org/2000/svg" viewBox="0 0 265.71 232.71">
  <title>answer</title>
  <g id="Layer_2" data-name="Layer 2">
    <g id="Layer_1-2" data-name="Layer 1">
      <g>
        <path d="M9.39,0H256.33a9.39,9.39,0,0,1,9.39,9.39V158.23a0,0,0,0,1,0,0H0a0,0,0,0,1,0,0V9.39A9.39,9.39,0,0,1,9.39,0Z" style="fill: #2a4a58"/>
        <path d="M265.71,174.38a10.94,10.94,0,0,1-10.94,10.94H10.94A10.94,10.94,0,0,1,0,174.38V158.23H265.71Z" style="fill: #bdccd4"/>
        <path d="M79.25,218.73s29.52,3.11,29.52-33.41h48.17c0,36.52,29.52,33.41,29.52,33.41Z" style="fill: #a2b5bc"/>
        <rect x="79.25" y="218.73" width="107.22" height="13.98" style="fill: #bdccd4"/>
        <circle cx="132.86" cy="171.78" r="6.22" style="fill: #2a4a58"/>
        <polygon points="251.73 145.54 13.98 12.69 251.73 12.69 251.73 145.54" style="fill: #9ed2e8"/>
        <rect x="13.98" y="12.69" width="237.74" height="132.86" style="fill: #9ed2e8"/>
        <rect x="13.98" y="12.69" width="237.74" height="132.86" style="fill: #9bccdd;opacity: 0.8"/>
        <polygon points="251.73 130.72 29.79 12.69 251.73 12.69 251.73 130.72" style="fill: #9ed2e8"/>
        <path d="M29.79,46.91H205.85A30.07,30.07,0,0,1,235.92,77v0A30.07,30.07,0,0,1,205.85,107h-146A30.07,30.07,0,0,1,29.79,77V46.91a0,0,0,0,1,0,0Z" transform="translate(265.71 153.96) rotate(180)" style="fill: #f39322"/>
        <text transform="translate(41.32 71.25)" style="font-size: 16.510740280151367px;font-family: AvenirNext-Regular, Avenir Next">Good question<tspan x="113.58" y="0" style="letter-spacing: -0.02998758257346053em">,</tspan><tspan x="117.37" y="0" xml:space="preserve"> he</tspan><tspan x="140.57" y="0" style="letter-spacing: -0.017980720122942804em">r</tspan><tspan x="146.22" y="0">e is </tspan><tspan x="0" y="19.81">a list o</tspan><tspan x="48.01" y="19.81" style="letter-spacing: 0.024013724901035455em">f</tspan><tspan x="53.28" y="19.81" xml:space="preserve"> the f</tspan><tspan x="90.71" y="19.81" style="letter-spacing: -0.006033004778092652em">e</tspan><tspan x="100.06" y="19.81" style="letter-spacing: -0.009995860857820177em">a</tspan><tspan x="108.71" y="19.81">tu</tspan><tspan x="123.53" y="19.81" style="letter-spacing: -0.017980720122942804em">r</tspan><tspan x="129.18" y="19.81">es..</tspan><tspan x="154.54" y="19.81" style="letter-spacing: -0.02998758257346053em">.</tspan></text>
      </g>
    </g>
  </g>
</svg>
