<svg xmlns="http://www.w3.org/2000/svg" viewBox="0 0 240.31 404.76">
  <title>chats-right</title>
  <g id="Layer_2" data-name="Layer 2">
    <g id="Layer_1-2" data-name="Layer 1">
      <g style="opacity: 0.1">
        <g>
          <path d="M47.92,326l-1.26-3.91L43,310.86v-.07c1.23-.34,2.43-.78,3.65-1.16L52,307.88l4.18-1.37a1.61,1.61,0,0,1,.49-.12l.06.08,3.14,9.64,1.77,5.41,0,0-.33.08-4.46,1.44-6.6,2.15c-.77.25-1.55.47-2.3.76Z" style="fill: #145a79"/>
          <path d="M62.19,352H61a9.34,9.34,0,0,1-2-.46A7.08,7.08,0,0,1,54.77,347c-.78-2.33-1.52-4.67-2.28-7,0-.09-.06-.17-.09-.25l0-.05a.71.71,0,0,0,.32-.07l3.52-1.14,8.67-2.82a7.94,7.94,0,0,1,1.19-.36c.28.72.5,1.47.74,2.2.55,1.69,1.07,3.39,1.65,5.06a7.18,7.18,0,0,1-5.18,9.22C62.95,351.88,62.56,351.91,62.19,352Z" style="fill: #145a79"/>
          <path d="M52.41,339.7l0,.05c-.75.2-1.48.46-2.21.7-1.69.54-3.38,1.07-5.06,1.65a7.13,7.13,0,0,1-8.57-3.44,7.21,7.21,0,0,1,3.89-10.22c1.53-.54,3.09-1,4.64-1.52l2.56-.83.28-.11,0,0c0,.09,0,.18.06.26l2.13,6.57q.85,2.63,1.71,5.26C52,338.64,52.19,339.18,52.41,339.7Z" style="fill: #145a79"/>
          <path d="M43,310.79v.07a6.17,6.17,0,0,0-1.13.33l-5.1,1.66c-.61.2-1.21.43-1.84.57a6.77,6.77,0,0,1-4.29-.42,7.27,7.27,0,0,1-3.52-3.26,6.72,6.72,0,0,1-.82-2.72,1.19,1.19,0,0,0,0-.13v-1.08a7.16,7.16,0,0,1,.77-2.74,7,7,0,0,1,4.14-3.56l7-2.28c.12,0,.28,0,.32-.2l.06.08a5,5,0,0,0,.25.87q1.34,4.15,2.69,8.29c.27.83.54,1.67.81,2.5S42.75,310.12,43,310.79Z" style="fill: #145a79"/>
          <path d="M56.76,306.47l-.06-.08a2.51,2.51,0,0,0-.17-.65l-2.62-8.07c-.27-.84-.55-1.69-.82-2.53s-.55-1.64-.82-2.46v-.07c.88-.23,1.73-.55,2.6-.83l8.26-2.68,4-1.29a1.11,1.11,0,0,0,.34-.14l0,0a.58.58,0,0,0,.06.26l2.53,7.78,1.57,4.8a5.09,5.09,0,0,0,.3.86l0,.05a.86.86,0,0,0-.29.07l-3,1L62,304.65l-4.94,1.61C56.95,306.29,56.8,306.3,56.76,306.47Z" style="fill: #145a79"/>
          <path d="M67.48,287.7l0,0c-.59-1.83-1.19-3.65-1.77-5.48a20.17,20.17,0,0,1-.8-2.64A7.23,7.23,0,0,1,71.31,271h1.28a7.23,7.23,0,0,1,4.55,2.18,6.7,6.7,0,0,1,1.6,2.59c.73,2.2,1.44,4.4,2.15,6.6.09.29.18.58.27.87l-.19.08-3.75,1.21-5.86,1.9Z" style="fill: #145a79"/>
          <path d="M52.27,292.62v.07a1,1,0,0,0-.33.06l-5,1.61-2.53.82-5.88,1.91-.06-.08c-.76-2.35-1.55-4.69-2.29-7.05A7,7,0,0,1,38,282.48a7.21,7.21,0,0,1,12,2.89l2.29,7Z" style="fill: #145a79"/>
          <path d="M61.64,321.57l0,0a1.38,1.38,0,0,0,.39-.11l12.37-4,2.43-.81h.07a2.52,2.52,0,0,0,.19.78c.6,1.86,1.2,3.71,1.8,5.57l.82,2.53,1.58,4.83a.17.17,0,0,0,0,0l-2.5.79L66.32,335.2l-.2,0a.89.89,0,0,1-.06-.12q-.9-2.77-1.79-5.54Q63,325.8,61.8,322A1.2,1.2,0,0,0,61.64,321.57Z" style="fill: #145a79"/>
          <path d="M61.64,321.57a1.2,1.2,0,0,1,.16.44q1.24,3.79,2.48,7.58.9,2.77,1.79,5.54a.89.89,0,0,0,.06.12.12.12,0,0,1,0,.06,7.94,7.94,0,0,0-1.19.36l-8.67,2.82-3.52,1.14a.71.71,0,0,1-.32.07c-.22-.52-.37-1.06-.54-1.59q-.86-2.63-1.71-5.26L48,326.27c0-.08,0-.17-.06-.26.75-.29,1.53-.51,2.3-.76l6.6-2.15,4.46-1.44Z" style="fill: #145a79;opacity: 0.9"/>
          <path d="M81.31,330.35a.18.18,0,0,1,0,0,.54.54,0,0,0,.26-.05l1.28-.41,8-2.6,2.59-.85a14.67,14.67,0,0,0,1.55-.54h.05a1.71,1.71,0,0,0,.12.45c.76,2.34,1.51,4.69,2.28,7a7.22,7.22,0,0,1-7.16,9.24,7.17,7.17,0,0,1-6.57-4.84c-.79-2.35-1.54-4.72-2.31-7.09C81.39,330.56,81.35,330.46,81.31,330.35Z" style="fill: #145a79"/>
          <path d="M95.07,325.86H95c-.1-.34-.2-.69-.31-1-.27-.84-.55-1.69-.82-2.53l-1.81-5.57c-.27-.84-.55-1.69-.82-2.53-.23-.68-.43-1.37-.69-2v0c.81-.22,1.6-.51,2.41-.76,1.66-.53,3.31-1.08,5-1.61a7.2,7.2,0,0,1,9.2,5.43c.06.26.07.53.11.8v1.35a7,7,0,0,1-4.74,6.08c-2.09.77-4.24,1.4-6.36,2.09Z" style="fill: #145a79"/>
          <path d="M76.91,316.6h-.07l0-.13L73,304.66c-.35-1.07-.7-2.14-1.05-3.2l0-.05a10.92,10.92,0,0,0,1.22-.37l5.29-1.72L84,297.51c.53-.17,1.06-.38,1.61-.5a9.32,9.32,0,0,1,.41,1.17l3.47,10.68,1.06,3.27v0l-1.19.37-8.27,2.69-2.53.82C78,316.22,77.45,316.38,76.91,316.6Z" style="fill: #145a79"/>
          <path d="M85.63,297c-.55.12-1.07.33-1.61.5l-5.58,1.81L73.16,301a10.92,10.92,0,0,1-1.22.37,5.09,5.09,0,0,1-.29-.86l-1.57-4.8L67.54,288a.58.58,0,0,1-.06-.26l3.9-1.28,5.86-1.9L81,283.3l.19-.08.05,0a1.06,1.06,0,0,0,.08.33l1.46,4.51,1.64,5.06L85.65,297Z" style="fill: #145a79;opacity: 0.8"/>
          <path d="M85.65,297l-1.25-3.81-1.64-5.06-1.46-4.51a1.06,1.06,0,0,1-.08-.33,8.49,8.49,0,0,1,1-.35l5.51-1.79a10.77,10.77,0,0,1,2-.52,6.81,6.81,0,0,1,2.64.16,7,7,0,0,1,5.35,5.61,7.16,7.16,0,0,1-4.26,8c-.8.34-1.64.56-2.46.83l-5.26,1.71Z" style="fill: #145a79"/>
          <path d="M38.57,297.08l5.88-1.91,2.53-.82,5-1.61a1,1,0,0,1,.33-.06c.27.82.55,1.64.82,2.46s.55,1.69.82,2.53l2.62,8.07a2.51,2.51,0,0,1,.17.65,1.61,1.61,0,0,0-.49.12L52,307.88l-5.37,1.74c-1.22.39-2.41.83-3.65,1.16-.27-.67-.46-1.36-.69-2s-.54-1.67-.81-2.5q-1.35-4.15-2.69-8.29A5,5,0,0,1,38.57,297.08Z" style="fill: #145a79;opacity: 0.8"/>
          <path d="M76.91,316.6c.54-.22,1.1-.38,1.66-.56l2.53-.82,8.27-2.69,1.19-.37c.26.67.47,1.36.69,2,.28.84.55,1.69.82,2.53l1.81,5.57c.27.84.55,1.68.82,2.53.11.34.2.69.31,1a14.67,14.67,0,0,1-1.55.54l-2.59.85-8,2.6-1.28.41a.54.54,0,0,1-.26.05l-1.58-4.83L78.91,323c-.6-1.86-1.21-3.71-1.8-5.57A2.52,2.52,0,0,1,76.91,316.6Z" style="fill: #145a79;opacity: 0.9"/>
        </g>
      </g>
      <rect x="26.39" y="141.92" width="20.18" height="20.18" transform="translate(72.96 304.03) rotate(-180)" style="fill: #145a79;opacity: 0.1"/>
      <rect x="82.14" y="206.71" width="20.18" height="20.18" transform="matrix(-0.93, 0.37, -0.37, -0.93, 257.79, 384.43)" style="fill: #145a79;opacity: 0.1"/>
      <rect x="8.36" y="380.51" width="20.18" height="20.18" transform="translate(272.43 687.92) rotate(142.2)" style="fill: #145a79;opacity: 0.1"/>
      <rect x="4.18" y="4.18" width="20.18" height="20.18" transform="translate(34.46 14.27) rotate(135)" style="fill: #145a79;opacity: 0.1"/>
      <rect x="137.45" y="340.24" width="20.18" height="20.18" transform="translate(167.43 729.95) rotate(-160.16)" style="fill: #145a79;opacity: 0.1"/>
      <g id="HWuX69" style="opacity: 0.1">
        <g>
          <path d="M172.3,231.31l-.36.08-3.09.8a.52.52,0,0,0-.35.28c-.78,1.41-1.57,2.81-2.35,4.21a4.29,4.29,0,0,1-7.73-3.68,4.1,4.1,0,0,1,.22-.46l16.62-29.77a4.29,4.29,0,0,1,7.78,3.55,3.83,3.83,0,0,1-.27.6l-8.14,14.58-.18.33.28,0,8.07-2.09c1.16-.3,2.32-.61,3.49-.9a4.14,4.14,0,0,1,2.7.25,4.27,4.27,0,0,1,2.32,5.34,4.1,4.1,0,0,1-2.85,2.7c-1.58.44-3.18.84-4.77,1.25l-2.74.7c-.2,0-.24.13-.22.32q.5,3.87,1,7.74c.24,1.91.5,3.83.72,5.74a4.27,4.27,0,0,1-5.44,4.65,4,4,0,0,1-3.05-3.48c-.55-3.95-1-7.91-1.52-11.86C172.38,231.89,172.34,231.6,172.3,231.31Z" style="fill: #145a79"/>
          <path d="M213.06,254.08l-.21,0-3.24.84a.49.49,0,0,0-.34.26l-2.33,4.18a4.29,4.29,0,0,1-7.88-3.3,3.83,3.83,0,0,1,.32-.75q8.33-14.93,16.68-29.86a4.29,4.29,0,0,1,7.73,3.63,3.8,3.8,0,0,1-.25.57l-8.14,14.59-.18.33.29,0,8.39-2.17,3.07-.79a4.13,4.13,0,0,1,3.23.45,4.27,4.27,0,0,1,1.81,5.32,4.17,4.17,0,0,1-2.9,2.54c-2.36.63-4.73,1.23-7.1,1.84l-.33.08c-.16,0-.2.11-.18.27.13,1,.25,1.94.37,2.91l1.34,10.55a4.29,4.29,0,0,1-5.54,4.68,4.16,4.16,0,0,1-3-3.66c-.53-4.09-1-8.18-1.56-12.27C213.09,254.25,213.08,254.18,213.06,254.08Z" style="fill: #145a79"/>
          <path d="M192.13,238.38q2.69-4.81,5.37-9.62a4.34,4.34,0,0,1,2.05-2,4.23,4.23,0,0,1,3.41-.06,4.29,4.29,0,0,1,2.37,5.52,4.68,4.68,0,0,1-.29.62q-5.42,9.71-10.84,19.41a4.3,4.3,0,0,1-7.82-3.49,6.36,6.36,0,0,1,.41-.85Z" style="fill: #145a79"/>
          <path d="M237.78,256a4.92,4.92,0,1,1-6.69,1.88A4.89,4.89,0,0,1,237.78,256Z" style="fill: #145a79"/>
        </g>
      </g>
      <g id="GTRPVP" style="opacity: 0.1">
        <g>
          <path d="M94.27,112.32a31.06,31.06,0,0,1-8.35,1.86l-.53.06a2.62,2.62,0,0,0-1.64,1l-2.56,3.07-1.77,2.12a1.5,1.5,0,0,1-.31.3.89.89,0,0,1-1.29-.38,1.63,1.63,0,0,1-.12-.52c-.15-1.66-.3-3.31-.46-5a1.71,1.71,0,0,0-1.3-1.57c-.75-.23-1.51-.46-2.24-.75A24.1,24.1,0,0,1,70,110.74a21.12,21.12,0,0,1-4.88-4,19.27,19.27,0,0,1-2.84-4.08A18.27,18.27,0,0,1,61,99.51a19.2,19.2,0,0,1-.64-8.09,22,22,0,0,1,1.68-6,25.94,25.94,0,0,1,4.64-7.09,29.75,29.75,0,0,1,6.75-5.51A31.76,31.76,0,0,1,76.6,71.2,31.64,31.64,0,0,1,90,68.31a28.05,28.05,0,0,1,7.1,1,25,25,0,0,1,4.63,1.77,21.75,21.75,0,0,1,5.3,3.71,19.45,19.45,0,0,1,3.12,3.84c.11.19.11.2-.11.27l-.94.31a28.68,28.68,0,0,0-8.59,4.87,25,25,0,0,0-6.07,7.27A20.14,20.14,0,0,0,92,99.25a17.47,17.47,0,0,0,.35,5.52,16.67,16.67,0,0,0,.87,2.76,17.15,17.15,0,0,0,2.3,4c.25.32.23.29-.11.42ZM77,91a3.57,3.57,0,1,0-4.59-2.09A3.57,3.57,0,0,0,77,91ZM95.86,80.24a3.57,3.57,0,1,0-2.11,4.58A3.57,3.57,0,0,0,95.86,80.24Z" style="fill: #145a79"/>
          <path d="M109.2,81a26.34,26.34,0,0,1,9.13-1.76,23.45,23.45,0,0,1,4.91.46,20.18,20.18,0,0,1,8,3.47,16.39,16.39,0,0,1,4.6,5.11,15.74,15.74,0,0,1,2,9.05,18.42,18.42,0,0,1-1.7,6.4,19.71,19.71,0,0,1-1.49,2.67,1.74,1.74,0,0,0-.37,1,1.51,1.51,0,0,0,.28.85l1.9,2.7c.21.29.42.58.62.88a.75.75,0,0,1-.8,1.14l-1.48-.25-4-.69a2.5,2.5,0,0,0-1.48.11,3,3,0,0,0-.57.35,25.18,25.18,0,0,1-3.66,2.23,27.18,27.18,0,0,1-3.87,1.58,26.25,26.25,0,0,1-6.25,1.2,24.06,24.06,0,0,1-5.93-.33,21.2,21.2,0,0,1-5.6-1.82,17.32,17.32,0,0,1-6.83-5.81,15.35,15.35,0,0,1-2-4.14,16.34,16.34,0,0,1-.1-9.26,19.86,19.86,0,0,1,2.65-5.78A23,23,0,0,1,101,86a25.12,25.12,0,0,1,4.61-3.3A24.22,24.22,0,0,1,109.2,81Zm14.51,8.21a3,3,0,1,0-1.9,3.83A3,3,0,0,0,123.71,89.25Zm-15.79,9a3,3,0,1,0-3.81-1.75A3,3,0,0,0,107.92,98.21Z" style="fill: #145a79"/>
        </g>
      </g>
      <rect x="173.69" y="120.6" width="20.18" height="20.18" transform="translate(402.77 184.57) rotate(158.4)" style="fill: #145a79;opacity: 0.1"/>
    </g>
  </g>
</svg>
