<svg xmlns="http://www.w3.org/2000/svg" viewBox="0 0 230.01 404.76">
  <title>chats-left_1</title>
  <g id="Layer_2" data-name="Layer 2">
    <g id="Layer_1-2" data-name="Layer 1">
      <g id="qLFoVk" style="opacity: 0.1">
        <path d="M134.41,341.47l0-.5c.2-3.8.4-7.6.62-11.4a.94.94,0,0,0-.37-.86,31.72,31.72,0,0,1-10.57-17.34,30,30,0,0,1,4.46-23.9,32.88,32.88,0,0,1,18.92-13.74c12-3.41,23.2-1.45,33.25,6.09a31.1,31.1,0,0,1,11,15,30,30,0,0,1-2.59,26,33.1,33.1,0,0,1-17.88,14.52,36.82,36.82,0,0,1-21.58,1.07c-.85-.21-1.7-.46-2.54-.72a1,1,0,0,0-.84.06l-11.4,5.52Zm.77-26.76.06.07.37-.17,16.93-8.16a.41.41,0,0,1,.6.13q3.15,3.8,6.32,7.57l1.83,2.18,20-19.17-.07-.09-2.36,1.15-14.63,7.15a.46.46,0,0,1-.67-.13c-1.88-2.22-3.78-4.43-5.67-6.64l-2.67-3.11Z" style="fill: #145a79"/>
      </g>
      <rect x="183.44" y="141.92" width="20.18" height="20.18" style="fill: #145a79;opacity: 0.1"/>
      <rect x="125.09" y="206.71" width="20.18" height="20.18" transform="translate(89.29 -34.54) rotate(21.6)" style="fill: #145a79;opacity: 0.1"/>
      <rect x="201.47" y="380.51" width="20.18" height="20.18" transform="translate(283.8 -47.7) rotate(37.8)" style="fill: #145a79;opacity: 0.1"/>
      <rect x="205.65" y="4.18" width="20.18" height="20.18" transform="translate(73.28 -148.37) rotate(45)" style="fill: #145a79;opacity: 0.1"/>
      <rect x="72.38" y="340.24" width="20.18" height="20.18" transform="translate(-114.01 48.79) rotate(-19.84)" style="fill: #145a79;opacity: 0.1"/>
      <g id="Afzp04" style="opacity: 0.1">
        <g>
          <path d="M63.63,212.63a30.24,30.24,0,0,1-.43,5.16.49.49,0,0,0,.06.34,17.81,17.81,0,0,1,2.16,6.59A18,18,0,0,1,61.19,239a17.79,17.79,0,0,1-7.51,5.29,18.07,18.07,0,0,1-4.27,1,18.63,18.63,0,0,1-4.15,0,17.85,17.85,0,0,1-6.91-2.17.64.64,0,0,0-.45-.08,30.68,30.68,0,0,1-3.58.38,31.57,31.57,0,0,1-3.8,0,30.82,30.82,0,0,1-5.6-.93,30.12,30.12,0,0,1-12-6.25A30.56,30.56,0,0,1,2.82,220a29.86,29.86,0,0,1-.77-4.78,32.13,32.13,0,0,1,0-5,27.71,27.71,0,0,1,.34-2.8.39.39,0,0,0,0-.27,17.79,17.79,0,0,1-2.18-6.6,18,18,0,0,1,3.2-12.95,18.11,18.11,0,0,1,6.89-5.9,17.71,17.71,0,0,1,5.14-1.62,18.57,18.57,0,0,1,4.06-.21,17.93,17.93,0,0,1,7.76,2.23.69.69,0,0,0,.49.09,30.22,30.22,0,0,1,6.23-.39,30.84,30.84,0,0,1,9.42,1.83,30.4,30.4,0,0,1,9.66,5.7,30.81,30.81,0,0,1,7.89,10.57,30.17,30.17,0,0,1,2.3,7.57A30.86,30.86,0,0,1,63.63,212.63Zm-57,0c0,.65,0,1.3.07,2a24.51,24.51,0,0,0,.66,4.26,26.12,26.12,0,0,0,25,19.92,28.21,28.21,0,0,0,6.46-.64.44.44,0,0,1,.35.06q.89.53,1.81,1a13.62,13.62,0,0,0,15-1.69,13.52,13.52,0,0,0,4.85-9.75,12.65,12.65,0,0,0-.78-5.27A20.74,20.74,0,0,0,58.33,219a.37.37,0,0,1-.06-.3,28.53,28.53,0,0,0,.57-3.92,27.8,27.8,0,0,0,0-4.46,24.49,24.49,0,0,0-.81-4.56,26.12,26.12,0,0,0-10.83-14.93A25.64,25.64,0,0,0,34,186.51a28.61,28.61,0,0,0-7.29.62.28.28,0,0,1-.22,0l-1.16-.66a13.49,13.49,0,0,0-9.69-1.63,13.21,13.21,0,0,0-7.53,4.36,13.41,13.41,0,0,0-3.38,8.07A13,13,0,0,0,5.25,202a17.51,17.51,0,0,0,2,4.22.47.47,0,0,1,.07.38A28.57,28.57,0,0,0,6.65,212.63Z" style="fill: #145a79"/>
          <path d="M32.82,231.58a24.77,24.77,0,0,1-7.35-1.1,13.89,13.89,0,0,1-5.39-3.1,8.05,8.05,0,0,1-2.24-3.45,4.92,4.92,0,0,1-.18-2.23,3,3,0,0,1,1.73-2.33,3.6,3.6,0,0,1,3.74.12,6.17,6.17,0,0,1,1.45,1.45c.5.63,1,1.29,1.47,1.9a7.67,7.67,0,0,0,4.5,2.59,11.45,11.45,0,0,0,3.82.1,6.68,6.68,0,0,0,4.31-2.2,4,4,0,0,0,1-2.53,3.35,3.35,0,0,0-1.63-3A6.56,6.56,0,0,0,36,216.9l-9.27-2.35A18.18,18.18,0,0,1,23,213.2a9.58,9.58,0,0,1-3.55-2.89A8.07,8.07,0,0,1,18,206.88a11.88,11.88,0,0,1,.25-5.43,9.32,9.32,0,0,1,4.05-5.26,14.69,14.69,0,0,1,4.85-1.95,21.45,21.45,0,0,1,5.63-.53,20.08,20.08,0,0,1,9.26,2.54,10.09,10.09,0,0,1,3.16,2.63,5.34,5.34,0,0,1,1.14,2.64A3,3,0,0,1,44.26,205a4.18,4.18,0,0,1-2.65.1,3.82,3.82,0,0,1-1.5-1c-.5-.46-.93-1-1.38-1.48A8.05,8.05,0,0,0,33.68,200a12.48,12.48,0,0,0-2.87-.1,6.67,6.67,0,0,0-3.4,1.12A3.76,3.76,0,0,0,26,204.91a3.06,3.06,0,0,0,1.38,1.74,7.69,7.69,0,0,0,2.1.93c1.84.55,3.73.92,5.6,1.35,1.68.39,3.38.7,5,1.21a13.67,13.67,0,0,1,4.34,2.18,8.75,8.75,0,0,1,3.28,5.17,10.66,10.66,0,0,1-1.8,9,11,11,0,0,1-4.16,3.33,16.84,16.84,0,0,1-4.8,1.46A27.89,27.89,0,0,1,32.82,231.58Z" style="fill: #145a79"/>
        </g>
      </g>
      <g id="iI80Lk" style="opacity: 0.1">
        <g>
          <path d="M131.48,104,102,83.61,122,40.2l34.61,9.24Zm-2.64-41.72L128,64.13c-1.94,4.2-3.9,8.4-5.79,12.62-.2.46-.26,1.38,0,1.57a26.82,26.82,0,0,0,3.23,1.85l7.53-16.32,5.79,2.27c.49-1.05.86-2,1.33-2.85s.33-1.36-.62-1.73c-2.14-.81-4.25-1.7-6.38-2.54s-4.52-1.8-6.81-2.61a1.69,1.69,0,0,0-1.52.27,21.18,21.18,0,0,0-1.45,3Z" style="fill: #145a79"/>
          <path d="M157.52,77.12,154,84.82l-4.2,9.1a5,5,0,0,1-5.86,3.23,9.06,9.06,0,0,1-5.37-2.56l10-21.63Z" style="fill: #145a79"/>
          <path d="M167.88,85.68c-1.59,3.45-3.09,6.81-4.69,10.12-.92,1.9-3.29,2.83-6,2.19a54.82,54.82,0,0,1-5.71-2l6.81-14.75Z" style="fill: #145a79"/>
          <path d="M169.16,70.31a5.26,5.26,0,0,1,2.54,7.13A5.36,5.36,0,0,1,164.65,80a5.34,5.34,0,1,1,4.51-9.67Z" style="fill: #145a79"/>
          <path d="M157.5,61.16a5.23,5.23,0,0,1,3.14,5A5.36,5.36,0,0,1,157.16,71a5.51,5.51,0,0,1-5.79-1.35,1.72,1.72,0,0,1-.37-2.29c.81-1.52,1.46-3.11,2.18-4.67C154.26,60.39,155.16,60.06,157.5,61.16Z" style="fill: #145a79"/>
        </g>
      </g>
      <rect x="43.44" y="108.92" width="20.18" height="20.18" style="fill: #145a79;opacity: 0.1"/>
    </g>
  </g>
</svg>
