<svg xmlns="http://www.w3.org/2000/svg" viewBox="0 0 569.71 402.6">
  <title>ipad</title>
  <g id="Layer_2" data-name="Layer 2">
    <g id="Layer_1-2" data-name="Layer 1">
      <g>
        <g>
          <rect x="83.55" y="-83.55" width="402.6" height="569.71" rx="20.51" ry="20.51" transform="translate(83.55 486.15) rotate(-90)" style="fill: #e6e6e6"/>
          <rect x="107.15" y="-35.39" width="353.8" height="473.38" transform="translate(82.75 485.35) rotate(-90)" style="fill: #9ed2e8"/>
          <circle cx="545.03" cy="201.3" r="12.03" style="fill: #ccc"/>
          <circle cx="24.08" cy="201.3" r="6.2" style="fill: #ccc"/>
        </g>
        <g>
          <path d="M286.74,247.12h-5.37l-1.94-.22a46,46,0,0,1-40.48-37.64c-.33-1.75-.49-3.52-.72-5.29q0-2.69,0-5.37c.14-1.15.25-2.3.41-3.44a44.65,44.65,0,0,1,12.74-25.93c10.28-10.31,22.79-14.84,37.28-13.52a43.73,43.73,0,0,1,25.48,11.06,44.88,44.88,0,0,1,15.69,32.49,43.6,43.6,0,0,1-6.42,25.45,45.16,45.16,0,0,1-31.45,21.7C290.23,246.73,288.47,246.88,286.74,247.12Zm36-45.83A38.67,38.67,0,1,0,284.07,240,38.74,38.74,0,0,0,322.72,201.28Z"/>
          <path d="M271.16,201.27q0-8.15,0-16.29c0-.33,0-.66,0-1,.18-2,1.69-3,3.47-2,2.53,1.34,5,2.82,7.45,4.26q10.66,6.21,21.31,12.44A7,7,0,0,1,305,200a1.87,1.87,0,0,1,0,2.67,6.25,6.25,0,0,1-1.45,1.16q-14,8.2-28,16.36c-2.75,1.6-4.35.68-4.35-2.49Q271.16,209.46,271.16,201.27Z"/>
        </g>
      </g>
    </g>
  </g>
</svg>
