<svg xmlns="http://www.w3.org/2000/svg" viewBox="0 0 265.71 232.71">
  <title>search</title>
  <g id="Layer_2" data-name="Layer 2">
    <g id="Layer_1-2" data-name="Layer 1">
      <g>
        <path d="M9.39,0H256.33a9.39,9.39,0,0,1,9.39,9.39V158.23a0,0,0,0,1,0,0H0a0,0,0,0,1,0,0V9.39A9.39,9.39,0,0,1,9.39,0Z" style="fill: #2a4a58"/>
        <polygon points="251.73 145.54 13.98 12.69 251.73 12.69 251.73 145.54" style="fill: #9ed2e8"/>
        <path d="M265.71,174.38a10.94,10.94,0,0,1-10.94,10.94H10.94A10.94,10.94,0,0,1,0,174.38V158.23H265.71Z" style="fill: #bdccd4"/>
        <path d="M80.8,218.73s29.52,3.11,29.52-33.41h48.17c0,36.52,29.52,33.41,29.52,33.41Z" style="fill: #a2b5bc"/>
        <rect x="13.98" y="12.69" width="237.74" height="132.86" style="fill: #9ed2e8"/>
        <rect x="13.98" y="12.69" width="237.74" height="132.86" style="fill: #9bccdd;opacity: 0.8"/>
        <rect x="80.8" y="218.73" width="107.22" height="13.98" style="fill: #bdccd4"/>
        <circle cx="134.41" cy="171.78" r="6.22" style="fill: #2a4a58"/>
        <polygon points="251.73 130.72 29.79 12.69 251.73 12.69 251.73 130.72" style="fill: #9ed2e8"/>
        <path d="M59.86,49h146a30.07,30.07,0,0,1,30.07,30.07v0a30.07,30.07,0,0,1-30.07,30.07H29.79a0,0,0,0,1,0,0V79.12A30.07,30.07,0,0,1,59.86,49Z" style="fill: #5ab85e"/>
        <text transform="translate(41.32 73.39)" style="font-size: 16.510740280151367px;font-family: AvenirNext-Regular, Avenir Next">Wh<tspan x="25.67" y="0" style="letter-spacing: -0.009995860857820177em">a</tspan><tspan x="34.33" y="0">t a</tspan><tspan x="52.5" y="0" style="letter-spacing: -0.017980720122942804em">r</tspan><tspan x="58.15" y="0">e the main </tspan><tspan x="0" y="19.81">f</tspan><tspan x="4.87" y="19.81" style="letter-spacing: -0.0059738576724250765em">e</tspan><tspan x="14.22" y="19.81" style="letter-spacing: -0.009995860857820177em">a</tspan><tspan x="22.87" y="19.81">tu</tspan><tspan x="37.69" y="19.81" style="letter-spacing: -0.018039867228610378em">r</tspan><tspan x="43.34" y="19.81" style="letter-spacing: 0.00005914710566757501em">es o</tspan><tspan x="74.33" y="19.81" style="letter-spacing: 0.024013724901035455em">f</tspan><tspan x="79.6" y="19.81" xml:space="preserve"> this p</tspan><tspan x="124.66" y="19.81" style="letter-spacing: -0.017980720122942804em">r</tspan><tspan x="130.3" y="19.81">oduct?</tspan></text>
      </g>
    </g>
  </g>
</svg>
