<svg xmlns="http://www.w3.org/2000/svg" viewBox="0 0 321.86 281.89"><defs><style>.cls-1{fill:#2a4a58;}.cls-2{fill:#9ed2e8;}.cls-3{fill:#bdccd4;}.cls-4{fill:#a2b5bc;}.cls-5{fill:#5ab85e;}.cls-6{font-size:20px;font-family:AvenirNext-Regular, Avenir Next;}.cls-7{letter-spacing:-0.01em;}.cls-8{letter-spacing:-0.02em;}.cls-9{letter-spacing:-0.01em;}.cls-10{letter-spacing:-0.02em;}.cls-11{letter-spacing:0.02em;}</style></defs><title>Search</title><g id="Layer_2" data-name="Layer 2"><g id="Layer_1-2" data-name="Layer 1"><path class="cls-1" d="M9.39,0H312.48a9.39,9.39,0,0,1,9.39,9.39V191.67a0,0,0,0,1,0,0H0a0,0,0,0,1,0,0V9.39A9.39,9.39,0,0,1,9.39,0Z"/><rect class="cls-2" x="16.94" y="15.37" width="287.98" height="160.93"/><path class="cls-3" d="M321.86,211.24a13.25,13.25,0,0,1-13.25,13.25H13.25A13.25,13.25,0,0,1,0,211.24V191.67H321.86Z"/><path class="cls-4" d="M97.88,265s35.76,3.77,35.76-40.46H192c0,44.23,35.76,40.46,35.76,40.46Z"/><rect class="cls-3" x="97.88" y="264.95" width="129.87" height="16.94"/><circle class="cls-1" cx="162.81" cy="208.08" r="7.53"/><path class="cls-5" d="M68.92,59.41H255.2a31.71,31.71,0,0,1,31.71,31.71v9.43a31.71,31.71,0,0,1-31.71,31.71h-218a0,0,0,0,1,0,0V91.12A31.71,31.71,0,0,1,68.92,59.41Z"/><text class="cls-6" transform="translate(51.18 88.89)">Wh<tspan class="cls-7" x="31.1" y="0">a</tspan><tspan x="41.58" y="0">t a</tspan><tspan class="cls-8" x="63.6" y="0">r</tspan><tspan x="70.44" y="0">e the main </tspan><tspan x="0" y="24">f</tspan><tspan class="cls-9" x="5.9" y="24">e</tspan><tspan class="cls-7" x="17.22" y="24">a</tspan><tspan x="27.7" y="24">tu</tspan><tspan class="cls-10" x="45.66" y="24">r</tspan><tspan x="52.5" y="24">es o</tspan><tspan class="cls-11" x="90.04" y="24">f</tspan><tspan x="96.42" y="24" xml:space="preserve"> this p</tspan><tspan class="cls-8" x="151" y="24">r</tspan><tspan x="157.84" y="24">oduct?</tspan></text></g></g></svg>