<svg xmlns="http://www.w3.org/2000/svg" width="350.32" height="278.74" viewBox="0 0 350.32 278.74">
  <title>Asset 1</title>
  <g id="Layer_2" data-name="Layer 2">
    <g id="Laag_1" data-name="Laag 1">
      <polygon points="6.8 278.74 350.32 275.37 0 200.49 6.8 278.74" style="fill: #ef3d38"/>
      <polygon points="6.8 278.74 100.73 277.56 176.58 238.74 68.57 213.93 6.8 278.74" style="fill: #bb3737"/>
      <polygon points="254.86 176.96 195.45 94.61 0 200.49 6.8 278.74 254.86 176.96" style="fill: #f5932f"/>
      <polygon points="254.86 176.96 97.17 147.93 168.14 109.33 254.86 176.96" style="fill: #ec6c2f"/>
      <polygon points="76.82 101.61 57.2 7.06 205.08 86.86 254.86 176.96 76.82 101.61" style="fill: #2390c5"/>
      <polygon points="76.82 101.61 110.78 115.86 205.08 86.86 137.19 49.84 76.82 101.61" style="fill: #1d759f"/>
      <polygon points="57.2 7.06 76.82 101.61 280 0 57.2 7.06" style="fill: #ef3d38"/>
    </g>
  </g>
</svg>
