<svg xmlns="http://www.w3.org/2000/svg" viewBox="0 0 51.42 51.42">
  <title>facebook-logo</title>
  <g id="Layer_2" data-name="Layer 2">
    <g id="Layer_1-2" data-name="Layer 1">
      <g>
        <g id="DOvFbJ">
          <path d="M27.82,20.67h4.52l-.52,5h-4V40H21.89V25.73H19.08v-5h2.81c0-.16,0-.28,0-.41,0-1.19,0-2.39.05-3.57a5.32,5.32,0,0,1,2.91-4.66,5.56,5.56,0,0,1,2.43-.6c1.65,0,3.29,0,5,0v4.9H29.1a1.17,1.17,0,0,0-1.27,1.2C27.8,18.57,27.82,19.59,27.82,20.67Z" style="fill: #fff"/>
        </g>
        <circle cx="25.71" cy="25.71" r="25.21" style="fill: none;stroke: #fff;stroke-miterlimit: 10"/>
      </g>
    </g>
  </g>
</svg>
