<svg xmlns="http://www.w3.org/2000/svg" viewBox="0 0 51.42 51.42">
  <title>twitter-icon</title>
  <g id="Layer_2" data-name="Layer 2">
    <g id="Layer_1-2" data-name="Layer 1">
      <g>
        <g id="Cu484Y">
          <path d="M40.33,16.64c-.24.33-.44.62-.67.9a11.88,11.88,0,0,1-2.1,2,.45.45,0,0,0-.21.42A17.48,17.48,0,0,1,34,30.76a16,16,0,0,1-7.18,5.65,17.41,17.41,0,0,1-7.16,1.21,16.84,16.84,0,0,1-6.47-1.51c-.72-.33-1.4-.72-2.09-1.13a12.42,12.42,0,0,0,8.8-2.53,6.15,6.15,0,0,1-5.62-4.2,6.29,6.29,0,0,0,2.7-.11A6,6,0,0,1,13.5,26a5.91,5.91,0,0,1-1.32-3.83,5.83,5.83,0,0,0,2.63.71,6.06,6.06,0,0,1-2.55-4.3A5.83,5.83,0,0,1,13,14.9a17.24,17.24,0,0,0,12.39,6.28c0-.37-.08-.71-.1-1a5.57,5.57,0,0,1,1-3.69,5.86,5.86,0,0,1,5.76-2.61,5.68,5.68,0,0,1,3.44,1.66.41.41,0,0,0,.44.12,12.11,12.11,0,0,0,3.27-1.24l.28-.15a5.41,5.41,0,0,1-1,1.86A6,6,0,0,1,37,17.47l0,.07c.55-.12,1.1-.21,1.64-.36S39.75,16.84,40.33,16.64Z" style="fill: #fff"/>
        </g>
        <circle cx="25.71" cy="25.71" r="25.21" style="fill: none;stroke: #fff;stroke-miterlimit: 10"/>
      </g>
    </g>
  </g>
</svg>
