<?xml version="1.0" standalone="no"?>
<!DOCTYPE svg PUBLIC "-//W3C//DTD SVG 20010904//EN"
 "http://www.w3.org/TR/2001/REC-SVG-20010904/DTD/svg10.dtd">
<svg version="1.0" xmlns="http://www.w3.org/2000/svg"
 width="700.000000pt" height="700.000000pt" viewBox="0 0 700.000000 700.000000"
 preserveAspectRatio="xMidYMid meet">
<metadata>
Created by potrace 1.11, written by Peter Selinger 2001-2013
</metadata>
<g transform="translate(0.000000,700.000000) scale(0.100000,-0.100000)"
fill="#000000" stroke="none">
<path d="M5336 6273 c-1 -2 -79 -4 -546 -18 -91 -3 -230 -7 -310 -10 -80 -3
-219 -7 -310 -10 -91 -3 -228 -7 -305 -10 -77 -2 -225 -7 -330 -10 -104 -4
-251 -8 -325 -11 -74 -2 -207 -6 -295 -8 -88 -3 -227 -7 -310 -10 -82 -3 -229
-8 -325 -11 -326 -10 -475 -15 -665 -21 -104 -3 -226 -7 -270 -9 -44 -2 -108
-4 -141 -4 l-61 -1 8 -42 c5 -24 11 -54 14 -68 3 -14 8 -40 11 -59 3 -19 9
-44 14 -55 4 -12 8 -24 8 -29 0 -9 13 -86 18 -107 1 -8 17 -82 34 -165 18 -82
34 -159 36 -170 3 -11 7 -31 10 -45 2 -14 9 -47 15 -75 6 -27 13 -59 14 -70 2
-11 11 -54 20 -95 9 -41 19 -86 21 -100 3 -14 16 -79 30 -145 14 -66 27 -130
30 -141 2 -12 13 -66 25 -120 11 -55 22 -109 25 -121 2 -13 6 -33 8 -45 30
-155 51 -234 64 -244 8 -6 31 -17 51 -24 20 -7 56 -22 81 -32 25 -11 54 -24
65 -29 95 -41 236 -99 242 -99 5 0 22 -7 38 -16 17 -9 127 -56 245 -105 118
-49 224 -94 235 -99 84 -38 155 -68 178 -74 48 -12 44 -15 -98 -91 -49 -26
-116 -63 -148 -81 -32 -19 -63 -34 -68 -34 -5 0 -19 -9 -31 -20 -12 -11 -30
-20 -39 -20 -10 0 -19 -3 -21 -7 -1 -5 -25 -19 -53 -33 -27 -14 -52 -27 -55
-30 -5 -5 -88 -49 -200 -107 -30 -15 -57 -31 -60 -34 -3 -3 -54 -32 -115 -64
-60 -32 -132 -70 -160 -85 -27 -15 -75 -40 -105 -56 -30 -16 -57 -31 -60 -34
-3 -3 -25 -15 -50 -28 -25 -12 -74 -38 -110 -58 -64 -35 -151 -83 -260 -142
-30 -16 -75 -41 -100 -54 -25 -14 -79 -43 -120 -65 -88 -47 -178 -96 -313
-169 -53 -30 -101 -54 -106 -54 -5 0 -11 -3 -13 -7 -1 -5 -32 -23 -68 -42 -36
-18 -85 -44 -110 -58 -25 -14 -85 -46 -133 -71 l-88 -47 6 -70 c4 -38 9 -90
11 -115 2 -25 6 -79 9 -120 3 -41 7 -95 10 -120 6 -56 19 -199 30 -342 3 -40
8 -93 10 -118 3 -25 7 -74 10 -110 2 -36 6 -83 9 -105 3 -22 8 -74 11 -115 6
-75 9 -115 21 -245 4 -38 6 -78 6 -88 -1 -17 22 -18 499 -15 274 2 499 5 499
8 0 3 190 6 423 6 387 2 1099 8 2202 19 237 3 659 7 938 9 280 3 511 7 514 9
2 3 17 1 33 -3 16 -4 31 -6 33 -4 8 9 137 9 137 1 0 -5 5 -5 11 -1 6 3 210 8
453 10 864 8 1087 11 1093 18 3 3 -2 6 -13 7 -24 1 -42 4 -151 28 -48 11 -124
27 -168 36 -109 23 -102 21 -180 39 -57 12 -176 38 -331 71 -124 26 -223 47
-239 51 -11 3 -31 7 -45 10 -14 2 -86 18 -160 34 -74 16 -198 42 -275 59 -77
17 -151 32 -165 35 -14 2 -47 10 -75 16 -27 6 -70 15 -95 20 -94 18 -242 50
-249 54 -3 2 -23 7 -43 10 -31 5 -87 17 -293 62 -11 2 -32 6 -47 9 -24 4 -104
22 -188 41 -14 3 -34 7 -45 9 -11 2 -31 6 -45 9 -14 3 -36 8 -50 11 -97 21
-130 28 -165 35 -70 14 -100 21 -115 25 -8 3 -33 7 -55 11 -22 3 -43 8 -48 11
-4 2 -19 6 -32 9 -14 2 -37 7 -52 10 -16 3 -38 7 -50 9 -11 2 -29 6 -40 9 -10
3 -31 8 -48 11 -52 9 -76 14 -98 21 -12 4 -31 8 -42 10 -11 1 -65 12 -120 24
-55 12 -109 23 -120 25 -11 2 -20 4 -20 5 0 3 -38 10 -80 16 -21 3 -42 7 -45
9 -3 2 -59 15 -125 29 -113 25 -187 42 -228 53 -16 4 -15 7 8 19 15 8 31 14
36 14 5 0 28 9 52 19 23 11 98 43 167 71 69 28 134 55 145 60 11 5 56 23 100
41 44 17 96 38 115 47 19 8 94 39 165 68 129 52 357 145 405 166 14 6 30 12
35 14 21 6 331 134 361 149 17 9 37 18 45 19 8 2 25 8 39 13 14 6 28 11 33 12
4 0 22 8 40 18 17 9 34 18 37 18 8 2 43 16 70 27 14 6 155 64 314 129 159 65
291 121 294 123 2 3 -5 20 -16 38 -11 18 -33 58 -50 88 -16 30 -41 75 -54 100
-83 147 -118 213 -118 220 0 5 -3 10 -7 12 -5 2 -16 19 -25 38 -10 19 -34 64
-54 100 -20 36 -47 85 -61 110 -13 25 -37 68 -53 95 -16 28 -41 75 -57 105
-15 30 -30 57 -33 60 -3 3 -38 64 -77 135 -39 72 -82 150 -96 175 -13 25 -70
128 -126 230 -56 102 -106 192 -111 200 -5 8 -19 34 -31 58 -13 23 -27 42 -32
42 -5 0 -21 8 -35 18 -15 11 -76 45 -137 77 -60 32 -146 78 -190 103 -44 24
-107 59 -140 77 -33 17 -91 49 -130 70 -38 21 -88 48 -110 59 -22 12 -42 23
-45 26 -3 3 -35 20 -72 39 -38 19 -68 37 -68 40 0 3 38 24 85 45 47 22 85 44
85 49 0 6 3 8 6 5 6 -7 248 111 252 123 2 5 9 9 15 9 16 0 201 91 208 102 3 5
10 10 15 10 16 -1 139 59 146 71 4 7 8 9 8 5 0 -8 244 112 248 123 2 5 9 9 16
9 11 0 1322 653 1333 664 3 3 -49 5 -116 3 -68 -1 -123 -3 -125 -4z"/>
</g>
</svg>
