<svg xmlns="http://www.w3.org/2000/svg" viewBox="0 0 321.86 281.89"><defs><style>.cls-1{fill:#2a4a58;}.cls-2{fill:#9ed2e8;}.cls-3{fill:#bdccd4;}.cls-4{fill:#a2b5bc;}.cls-5{fill:#f39322;}.cls-6{font-size:20px;font-family:AvenirNext-Regular, Avenir Next;}.cls-7{letter-spacing:-0.03em;}.cls-8{letter-spacing:-0.02em;}.cls-9{letter-spacing:0.02em;}.cls-10{letter-spacing:-0.01em;}.cls-11{letter-spacing:-0.01em;}</style></defs><title>Answer</title><g id="Layer_2" data-name="Layer 2"><g id="Layer_1-2" data-name="Layer 1"><path class="cls-1" d="M9.39,0H312.48a9.39,9.39,0,0,1,9.39,9.39V191.67a0,0,0,0,1,0,0H0a0,0,0,0,1,0,0V9.39A9.39,9.39,0,0,1,9.39,0Z"/><rect class="cls-2" x="16.94" y="15.37" width="287.98" height="160.93"/><path class="cls-3" d="M321.86,211.24a13.25,13.25,0,0,1-13.25,13.25H13.25A13.25,13.25,0,0,1,0,211.24V191.67H321.86Z"/><path class="cls-4" d="M96,265s35.77,3.77,35.77-40.46h58.35c0,44.23,35.76,40.46,35.76,40.46Z"/><rect class="cls-3" x="95.99" y="264.95" width="129.87" height="16.94"/><circle class="cls-1" cx="160.93" cy="208.08" r="7.53"/><path class="cls-5" d="M36.08,56.83h218a31.71,31.71,0,0,1,31.71,31.71V98a31.71,31.71,0,0,1-31.71,31.71H67.79A31.71,31.71,0,0,1,36.08,98V56.83a0,0,0,0,1,0,0Z" transform="translate(321.86 186.5) rotate(-180)"/><text class="cls-6" transform="translate(50.05 86.31)">Good question<tspan class="cls-7" x="137.58" y="0">,</tspan><tspan x="142.18" y="0" xml:space="preserve"> he</tspan><tspan class="cls-8" x="170.28" y="0">r</tspan><tspan x="177.12" y="0">e is </tspan><tspan x="0" y="24">a list o</tspan><tspan class="cls-9" x="58.16" y="24">f</tspan><tspan x="64.54" y="24" xml:space="preserve"> the f</tspan><tspan class="cls-10" x="109.88" y="24">e</tspan><tspan class="cls-11" x="121.2" y="24">a</tspan><tspan x="131.68" y="24">tu</tspan><tspan class="cls-8" x="149.64" y="24">r</tspan><tspan x="156.48" y="24">es..</tspan><tspan class="cls-7" x="187.2" y="24">.</tspan></text></g></g></svg>