<svg xmlns="http://www.w3.org/2000/svg" viewBox="0 0 40.21 82">
  <title>phone</title>
  <g id="Layer_2" data-name="Layer 2">
    <g id="Layer_1-2" data-name="Layer 1">
      <g>
        <path d="M1.5,36.42V77.87A2.63,2.63,0,0,0,4.13,80.5H36.08a2.63,2.63,0,0,0,2.63-2.63V4.13A2.63,2.63,0,0,0,36.08,1.5H4.13A2.63,2.63,0,0,0,1.5,4.13V24.87A2.63,2.63,0,0,0,4.13,27.5h0a2.63,2.63,0,0,0,2.63-2.63V14.58A2.63,2.63,0,0,1,9.39,12H30.13a2.63,2.63,0,0,1,2.63,2.63v52a2.63,2.63,0,0,1-2.63,2.63H9.73A2.63,2.63,0,0,1,7.1,66.54V33.33" style="fill: none;stroke: #0a6b94;stroke-miterlimit: 10;stroke-width: 3px"/>
        <circle cx="20.11" cy="74.69" r="1.3" style="fill: none;stroke: #0a6b94;stroke-miterlimit: 10;stroke-width: 3px"/>
      </g>
    </g>
  </g>
</svg>
