<svg xmlns="http://www.w3.org/2000/svg" viewBox="0 0 129.7 125.08">
  <title>person-training</title>
  <g id="Layer_2" data-name="Layer 2">
    <g id="Layer_1-2" data-name="Layer 1">
      <g id="PersonRetail">
        <path d="M63.71,96.14,46.14,90.29V75.11s7.16-3,11.87-8.51H72l11.71,8.51,1.85,18.8Z" style="fill: #dda285"/>
        <g>
          <path d="M42,44.27s2.22,28.18,23,28.18S90.57,44.27,90.57,44.27L84.63,15.72,46.81,17.57Z" style="fill: #e6aa86"/>
          <path d="M77.22,26.1s-4.45,8.53-8.9,11.12l.74-3.71S57.38,48.9,42,44.27c0,0-4.63-22.06,6.49-31.52s21.32-5,21.32-5S74.07-6.34,89.08,3.48s0,20,0,20,3.71,7.42,1.48,20.76A25.78,25.78,0,0,1,77.22,26.1Z" style="fill: #481b06"/>
          <path d="M42.81,49.38,41.13,37.54S38.07,35,38,41.56C37.95,48.74,42.81,49.38,42.81,49.38Z" style="fill: #dda285"/>
          <circle cx="40.72" cy="47.65" r="1.73" style="fill: #03bed7"/>
          <path d="M88,50.77l1.68-11.84s3.05-2.58,3.11,4C92.89,50.13,88,50.77,88,50.77Z" style="fill: #dda285"/>
          <circle cx="90.12" cy="49.04" r="1.73" style="fill: #03bed7"/>
        </g>
        <g>
          <path d="M65.21,125.08H0s3.12-20.79,7.15-28.87c4.67-9.34,38.88-21,38.88-21s-.3,19.68,19.18,19.68S83.66,75.18,83.66,75.18s33.82,11.69,38.82,21c4.26,8,7.21,28.87,7.21,28.87H64.49" style="fill: #03bed7"/>
          <path d="M88.44,76.83l-4.78-1.64s1,19.68-18.47,19.68S46,75.18,46,75.18l-4.21,1.45s-.55,21.92,23.32,21.92S88.44,76.83,88.44,76.83Z" style="fill: #107c8a"/>
          <rect x="88.44" y="100.13" width="23.67" height="7.83" style="fill: #f2f2f2;stroke: #333;stroke-miterlimit: 10;stroke-width: 0.75px"/>
          <g>
            <path d="M95.17,101.95l-.36,1.84h2l.35-1.84h.54l-.84,4.37h-.54l.39-2.05h-2l-.39,2.05H93.8l.84-4.37Z"/>
            <path d="M100.1,106.13a2.17,2.17,0,0,1-1,.25,1.13,1.13,0,0,1-1.19-1.26,1.94,1.94,0,0,1,1.71-2,.82.82,0,0,1,.92.8c0,.82-.93,1-2.09,1a1.3,1.3,0,0,0,.07.6.71.71,0,0,0,.7.42,1.75,1.75,0,0,0,.84-.22Zm-.6-2.61c-.51,0-.89.5-1,1,.84,0,1.5-.1,1.5-.59C100,103.67,99.79,103.53,99.5,103.53Z"/>
            <path d="M100.78,106.31l.87-4.6h.54l-.88,4.6Z"/>
            <path d="M102.26,106.31l.87-4.6h.54l-.88,4.6Z"/>
            <path d="M106.75,104.42a1.88,1.88,0,0,1-1.74,2,1.2,1.2,0,0,1-1.22-1.29,1.88,1.88,0,0,1,1.74-2A1.2,1.2,0,0,1,106.75,104.42Zm-2.4.66c0,.51.28.88.74.88.64,0,1.11-.82,1.11-1.55a.78.78,0,0,0-.73-.88C104.79,103.53,104.34,104.36,104.34,105.08Z"/>
          </g>
        </g>
      </g>
    </g>
  </g>
</svg>
