<svg xmlns="http://www.w3.org/2000/svg" viewBox="0 0 129.7 143.55">
  <title>person-production</title>
  <g id="Layer_2" data-name="Layer 2">
    <g id="Layer_1-2" data-name="Layer 1">
      <g id="PersonProduction">
        <path d="M63.69,114.63l-17.57-5.85V93.6s7.16-3,11.87-8.51H72L83.74,93.6l1.85,18.8Z" style="fill: #cc8c69"/>
        <g>
          <path d="M39.79,65.83s2.08,25.56,26.12,25.56S91.66,65.83,91.66,65.83L85.6,40.27,47.36,36.87Z" style="fill: #d2946b"/>
          <path d="M91.66,64.13s.82-16.31,0-21.39C90.71,36.87,82,23.65,64.39,23.65c-6.6,0-10.35,2.41-14.13,5.47a28.23,28.23,0,0,0-10,18c-.81,5.64-1.64,13.88-.5,18.74,0,0,7.1-2.23,6.25-11.43-.45-4.8.86-7.76,2.21-9.51a3.63,3.63,0,0,1,4.54-1c4,2.05,13.6,5.71,26.22,1.85a4.47,4.47,0,0,1,5.34,2.33A21.68,21.68,0,0,1,86,53.63a37.23,37.23,0,0,1,.55,5.54c.08,2.61.74,8.11,5.12,6.66" style="fill: #5c220e"/>
          <path d="M40.2,68.47l-.86-12.28s-3.54-2.44-3.6,4.3C35.67,67.82,40.2,68.47,40.2,68.47Z" style="fill: #cc8c69"/>
          <path d="M91.29,68.47l.65-12.13s3.51-2.6,3.57,4.14C95.58,67.82,91.29,68.47,91.29,68.47Z" style="fill: #cc8c69"/>
        </g>
        <g>
          <path d="M65.21,143.55H0s1.05-19,3.16-27.76S46,93.65,46,93.65s-.3,19.68,19.18,19.68S83.66,93.65,83.66,93.65s40.76,13.35,42.87,22.14,3.16,27.76,3.16,27.76H64.49" style="fill: #f39322"/>
          <polygon points="21.56 103.06 21.56 143.52 58.32 143.52 38.84 96.17 33.33 98.19 26.05 101.11 21.56 103.06" style="fill: #ff6d00"/>
          <polygon points="109.67 103.8 109.67 143.55 72.92 143.55 92.45 96.74 94.16 97.38 99.12 99.3 104.89 101.67 109.67 103.8" style="fill: #ff6d00"/>
          <polygon points="104.54 143.54 104.54 101.52 102.89 100.82 100.15 99.71 100.15 143.54 104.54 143.54"/>
          <path d="M37.25,38c-2.11-31.27,19-31.36,19-31.36V0h19.5V6.06C100,13.44,94.44,38,94.44,38h5.71V44.8H31.1V38Z" style="fill: #f39322"/>
          <path d="M52.75,7.13l.74,30L56.22,6.59l-1.45.11-.42.07Z" style="fill: #b66e1a"/>
          <path d="M79.19,7.31l-.72,29.23L75.73,6l1.47.52c.06,0,1,.37,1,.38Z" style="fill: #b66e1a"/>
          <polygon points="26.71 143.55 26.71 100.85 31.1 99.08 31.1 143.55 26.71 143.55"/>
        </g>
      </g>
    </g>
  </g>
</svg>
