<svg xmlns="http://www.w3.org/2000/svg" viewBox="0 0 128.62 129.89">
  <title>person-training_1</title>
  <g id="Layer_2" data-name="Layer 2">
    <g id="Layer_1-2" data-name="Layer 1">
      <g id="PersonTraining">
        <path d="M63.07,101.26,45.5,95.41V80.23s7.16-3,11.87-8.51h14l11.71,8.51L85,99Z" style="fill: #a06740"/>
        <path d="M43.23,46.8c-.26.27,2,28.47,23,28.21C87,74.74,91.85,46.8,91.85,46.8L85.91,18.22,48.05,20.07Z" style="fill: #ae7242"/>
        <path d="M54,26.8a43.19,43.19,0,0,0,37.87,20s.92-20.37-3.24-27.53S80.2,5.64,65.35,6.38s-25.91,13-26.5,21.71S36.55,70.74,55.72,72c0,0-.27-.17-.72-.51A25.51,25.51,0,0,1,44.67,50.95V46.86a5.78,5.78,0,0,1,1.26-3.6C48.81,39.63,55.56,30.54,54,26.8Z" style="fill: #5b1d12"/>
        <g>
          <path d="M64.67,129.89H0s1-18.82,3.14-27.53,42.52-22,42.52-22l19,17.69L83,80.4s40.42,13.24,42.52,22,3.14,27.53,3.14,27.53H64" style="fill: #273238"/>
          <rect x="38.74" y="13.57" width="52.88" height="18.12" style="fill: #1d262b"/>
          <polygon points="16.07 9.43 64.67 0 114.39 9.43 64.67 18.87 16.07 9.43" style="fill: #273236"/>
          <polygon points="25.9 11.37 25.9 23.27 27.82 53.18 21.36 53.18 22.36 23.27 22.32 10.68 25.9 11.37" style="fill: #eaa703"/>
          <circle cx="23.94" cy="24.01" r="4.72" style="fill: #eaa703"/>
        </g>
        <g>
          <path d="M74.56,119.85s.92-3.08,5.43-5.85c11.52-7.06,15-27.94,9.23-35.63-2.38-3.2-5.83-12-5.83-12l-3.75,3.61s2.29,13.44-.77,17.89-11,14.84-8.77,21.69A49,49,0,0,0,74.56,119.85Z" style="fill: #431305"/>
          <polygon points="79.64 69.94 83.28 66.03 84.08 68.14 79.9 71.71 79.64 69.94" style="fill: #e74138"/>
        </g>
      </g>
    </g>
  </g>
</svg>
