<svg xmlns="http://www.w3.org/2000/svg" viewBox="0 0 129.7 124.87">
  <title>person-services</title>
  <g id="Layer_2" data-name="Layer 2">
    <g id="Layer_1-2" data-name="Layer 1">
      <g id="PersonServices">
        <path d="M46.32,75s7.23-2.73,11.93-8.19h14S79.71,73.65,83.64,75,64,96.33,64,96.33Z" style="fill: #7f503b"/>
        <path d="M38.24,46.66s5.87,25,26.88,24.1c14.14-.62,22.4-11.32,26.29-18.25a15.42,15.42,0,0,0,1.54-11.06L88.6,22.87,58,9.41l-9.58,2Z" style="fill: #88563b"/>
        <path d="M66.2,0S42.74-1,38.4,22.27c-1.09,5.86-.78,19.64-.17,24.4,0,0,17.32-15.14,13.6-26.88l7.41,6.49.31-2.94,12.92,8.19V28.74s7.32,7.57,16.28,7.11c0,0,3.37,9.84,4.6,10C93.36,45.85,100,0,66.2,0Z" style="fill: #441704"/>
        <path d="M38.24,47.58l-.81-13.16s-4.21-2.29-4.28,5C33.08,47.45,38.24,47.58,38.24,47.58Z" style="fill: #7f503b"/>
        <path d="M93.19,46.35l.63-10.6S97,33.47,97.1,39.4C97.15,45.86,93.19,46.35,93.19,46.35Z" style="fill: #7f503b"/>
        <g>
          <polygon points="64.85 91.58 83.66 74.97 64.49 120.84 46.03 74.97 64.85 91.58" style="fill: #f5f4f0"/>
          <polygon points="52.99 115.57 63.92 122.81 72.09 115.04 68.41 105.82 66.96 97.91 69.86 93.03 64.85 91.45 59.45 93.03 62.54 97.65 60.23 105.95 52.99 115.57" style="fill: #f23c29"/>
          <path d="M65.21,124.87H0s1.05-19,3.16-27.76S46,75,46,75l18.45,45.87L83.66,75s40.76,13.35,42.87,22.14,3.16,27.76,3.16,27.76H64.49" style="fill: #39547f"/>
        </g>
      </g>
    </g>
  </g>
</svg>
