<svg xmlns="http://www.w3.org/2000/svg" viewBox="0 0 141 156.08"><defs><style>.cls-1{fill:#fde2d1;}.cls-2{fill:#3d1c09;}.cls-3{fill:#f2f2f2;}.cls-4{fill:#0d8ec5;}.cls-5{fill:#2e1507;}.cls-6{fill:#b3b3b3;}.cls-6,.cls-7{stroke:#363f44;stroke-miterlimit:10;}.cls-7{fill:#e6e6e6;}</style></defs><title>Before Ella</title><g id="Layer_2" data-name="Layer 2"><g id="Layer_1-2" data-name="Layer 1"><path class="cls-1" d="M47,26.87c-5,13-3,27.47,4,39.42,4.62,7.79,11.24,15.53,19.33,15.53s15-8,19.77-15.87a45.41,45.41,0,0,0,5.4-32.5C92.83,20.2,86.3,4.39,70.62,7,57.42,9.11,50.52,17.69,47,26.87Z"/><path class="cls-2" d="M45.1,50.69s-1.12-12.93,1.71-20a6.74,6.74,0,0,1,6.29-4.1H62a16.64,16.64,0,0,0,5.63-1l16.71-6a81.1,81.1,0,0,0,7.44,11.52c4.36,5.54,4.76,18,4.76,18s1-16.79,3.39-19.67L96.5,19.67v-4.8l-4.76-1.68-2.4-4.08-6.48-7.2-.72,2.4S67.26-6,51.66,5.27,45.1,50.69,45.1,50.69Z"/><path class="cls-1" d="M93.94,57.88l1.6-16.36s4.47-3.07,3.75,4.84S93.94,57.88,93.94,57.88Z"/><path class="cls-1" d="M47.08,57.88,44.94,41.52s-4.47-3.07-3.75,4.84A16.13,16.13,0,0,0,47.08,57.88Z"/><path class="cls-3" d="M64.26,45.58c-3.48-4.55-9.72,0-9.72,0s5.64,5.24,9.92.28Z"/><path class="cls-4" d="M57.49,44.07a2.09,2.09,0,0,0,2.21,2,3,3,0,0,0,2.77-2A6.12,6.12,0,0,0,57.49,44.07Z"/><path class="cls-3" d="M86.24,46.27c-3.48-4.55-9.72,0-9.72,0s5.64,5.24,9.92.28Z"/><path class="cls-4" d="M79.47,44.76a2.09,2.09,0,0,0,2.21,2,3,3,0,0,0,2.77-2A6.12,6.12,0,0,0,79.47,44.76Z"/><polygon class="cls-5" points="77.06 41.11 76.1 43.88 89.94 44.25 92.14 46.1 90.3 41.75 77.06 41.11"/><path class="cls-5" d="M49.9,45.54l2-2,13.76-3A23.93,23.93,0,0,0,64.14,38c-.12,0-13,2.94-13,2.94Z"/><rect class="cls-6" x="0.5" y="51.92" width="140" height="87.33" rx="14.76" ry="14.76"/><path class="cls-7" d="M48.83,155.58H92.17L86.5,105.26a10.9,10.9,0,0,0-10.82-9.68H65.32a10.9,10.9,0,0,0-10.82,9.68Z"/></g></g></svg>