<svg xmlns="http://www.w3.org/2000/svg" viewBox="0 0 1831.81 326.14"><defs><style>.cls-1{fill:#0a6b94;}</style></defs><title>Blue Cloud</title><g id="Layer_2" data-name="Layer 2"><g id="Layer_1-2" data-name="Layer 1"><path class="cls-1" d="M101.32,239.44a104.54,104.54,0,0,0,82.32-35.75,104.67,104.67,0,0,0,143.43-15.31A41,41,0,0,0,397,185.17a104.72,104.72,0,0,0,176.85,8.41,104.75,104.75,0,0,0,161.91,13,63,63,0,0,0,101.6-17.25A104.78,104.78,0,0,0,950.68,196a41.05,41.05,0,0,0,77.48-.51,104.66,104.66,0,0,0,111.34,7.94,104.6,104.6,0,0,0,76,13.76,41.05,41.05,0,0,0,79.42,7.45,104.74,104.74,0,0,0,140.44-20.32,41,41,0,0,0,66.81-1.73,104.76,104.76,0,0,0,122.75,42.28,104.79,104.79,0,1,0,67.5-122.4,104.74,104.74,0,0,0-159.65-64,59.89,59.89,0,0,0-109.13,1.37,104.71,104.71,0,0,0-139.29.25,104.72,104.72,0,0,0-138.89-38A104.73,104.73,0,0,0,996.08,64.9,104.78,104.78,0,0,0,808.83,51.73a41,41,0,0,0-73.15,9.9A104.7,104.7,0,0,0,574.28,74a104.76,104.76,0,0,0-171.52-1.39A41,41,0,0,0,342.6,77,104.76,104.76,0,0,0,168.43,51.55a104.76,104.76,0,1,0-67.11,187.89Z"/></g></g></svg>