<svg xmlns="http://www.w3.org/2000/svg" viewBox="0 0 331.02 210.87">
  <title>capture-valuable-knowledge</title>
  <g id="Layer_2" data-name="Layer 2">
    <g id="Layer_1-2" data-name="Layer 1">
      <g id="CaptureValuableKnowledge">
        <rect id="Background" x="24.91" y="18.27" width="306.11" height="185.45" rx="27.53" ry="27.53" style="fill: #fde9d3"/>
        <g id="Frame3">
          <rect x="180.01" y="133.87" width="76.5" height="76.5" rx="10.65" ry="10.65" style="fill: #addbaf;stroke: #000;stroke-miterlimit: 10"/>
          <g>
            <path d="M219.05,189.09h-4.71a23.71,23.71,0,0,1-7.63,5.47s12.34,4.56,24.67,0a23.71,23.71,0,0,1-7.63-5.47h-4.71" style="fill: #cc8c69"/>
            <g>
              <path d="M202.65,174.78s1.34,16.43,16.79,16.43S236,174.78,236,174.78l-3.89-16.43-24.58-2.19Z" style="fill: #d2946b"/>
              <path d="M236,173.68s.53-10.49,0-13.75c-.61-3.77-6.21-12.27-17.53-12.27-4.24,0-6.65,1.55-9.08,3.52A18.15,18.15,0,0,0,203,162.73c-.52,3.63-1.06,8.93-.32,12,0,0,4.57-1.44,4-7.35a8.34,8.34,0,0,1,1.42-6.11,2.33,2.33,0,0,1,2.92-.63,22.38,22.38,0,0,0,16.85,1.19,2.87,2.87,0,0,1,3.43,1.5,13.94,13.94,0,0,1,1.06,3.56,23.93,23.93,0,0,1,.35,3.56c0,1.68.48,5.22,3.29,4.28" style="fill: #5c220e"/>
              <path d="M202.91,176.48l-.55-7.9s-2.27-1.57-2.31,2.76C200,176.06,202.91,176.48,202.91,176.48Z" style="fill: #cc8c69"/>
              <path d="M235.76,176.48l.42-7.8s2.26-1.67,2.3,2.66C238.52,176.06,235.76,176.48,235.76,176.48Z" style="fill: #cc8c69"/>
            </g>
          </g>
        </g>
        <g id="Frame2">
          <path d="M299.74,109.25h-55.2A10.65,10.65,0,0,1,233.89,98.6V43.4a10.65,10.65,0,0,1,10.65-10.65h55.2A10.65,10.65,0,0,1,310.39,43.4V98.6A10.65,10.65,0,0,1,299.74,109.25Z" style="fill: #ec6760;stroke: #000;stroke-miterlimit: 10"/>
          <g>
            <path d="M272.23,88.08h-4.44a22.41,22.41,0,0,1-7.2,5.06s11.65,4.22,23.3,0a22.41,22.41,0,0,1-7.2-5.06h-4.44" style="fill: #a06740"/>
            <g>
              <path d="M258.1,72.41c-.16.17,1.27,17.91,14.77,17.74,13.34-.17,16.44-17.74,16.44-17.74l-3.81-18L261.2,55.6Z" style="fill: #ae7242"/>
              <path d="M265,59.83a27.8,27.8,0,0,0,24.31,12.58s.59-12.81-2.08-17.31S280.36,47,272.31,47c-9.54,0-15.79,5.53-17,13.66-.83,5.53-1.47,26.82,10.84,27.64l-.46-.32A15.94,15.94,0,0,1,259,75V72.45a3.59,3.59,0,0,1,.81-2.27C261.69,67.9,266,62.18,265,59.83Z" style="fill: #5b1d12"/>
            </g>
          </g>
        </g>
        <g id="Frame1">
          <rect x="122.27" y="0.5" width="76.5" height="76.5" rx="10.65" ry="10.65" style="fill: #0d8ec5;stroke: #000;stroke-miterlimit: 10"/>
          <g>
            <path d="M160.52,56.79h-4.71a23.71,23.71,0,0,1-7.63,5.47s12.34,4.56,24.67,0a23.71,23.71,0,0,1-7.63-5.47h-4.71" style="fill: #7f503b"/>
            <path d="M143.37,43s3.75,16,17.15,15.38c9-.4,14.29-7.22,16.77-11.64a9.84,9.84,0,0,0,1-7.06L175.5,27.8,156,19.21l-6.11,1.29Z" style="fill: #88563b"/>
            <path d="M161.21,13.21s-15-.63-17.74,14.2c-.7,3.74-.5,12.53-.11,15.57,0,0,11-9.66,8.68-17.15L156.77,30l.2-1.88,8.24,5.23V31.55s4.67,4.83,10.39,4.53c0,0,2.15,6.28,2.94,6.38C178.54,42.46,182.79,13.21,161.21,13.21Z" style="fill: #441704"/>
            <path d="M143.37,43.57l-.52-8.4s-2.69-1.46-2.73,3.22C140.08,43.48,143.37,43.57,143.37,43.57Z" style="fill: #7f503b"/>
            <path d="M178.43,42.78l.4-6.76s2.06-1.46,2.09,2.33C181,42.47,178.43,42.78,178.43,42.78Z" style="fill: #7f503b"/>
          </g>
        </g>
        <g id="Pad">
          <rect x="0.5" y="89.99" width="140.3" height="108.02" rx="5.73" ry="5.73" style="fill: #e6e6e6;stroke: #000;stroke-miterlimit: 10"/>
          <rect x="26.92" y="87.2" width="87.46" height="113.6" transform="translate(-73.35 214.65) rotate(-90)" style="fill: #fff;stroke: #000;stroke-miterlimit: 10"/>
          <path d="M32.17,109.21H81.28a8.32,8.32,0,0,1,8.32,8.32v0a8.32,8.32,0,0,1-8.32,8.32H23.85a0,0,0,0,1,0,0v-8.32a8.32,8.32,0,0,1,8.32-8.32Z" style="fill: #5ab85e"/>
          <path d="M60,135.35h49.11a8.32,8.32,0,0,1,8.32,8.32V152a0,0,0,0,1,0,0H60a8.32,8.32,0,0,1-8.32-8.32v0A8.32,8.32,0,0,1,60,135.35Z" style="fill: #f5a94e"/>
          <path d="M32.17,162.16H81.28a8.32,8.32,0,0,1,8.32,8.32v0a8.32,8.32,0,0,1-8.32,8.32H23.85a0,0,0,0,1,0,0v-8.32a8.32,8.32,0,0,1,8.32-8.32Z" style="fill: #5ab85e"/>
          <circle cx="134.39" cy="144" r="3.96" style="fill: #fff;stroke: #000;stroke-miterlimit: 10"/>
        </g>
      </g>
    </g>
  </g>
</svg>
