<svg xmlns="http://www.w3.org/2000/svg" viewBox="0 0 306.11 194.56">
  <title>imp-acc-know-ret</title>
  <g id="Layer_2" data-name="Layer 2">
    <g id="Layer_1-2" data-name="Layer 1">
      <g id="ImproveAccessKnowledgeRet">
        <rect id="Background" y="9.11" width="306.11" height="185.45" rx="27.53" ry="27.53" style="fill: #ffe2e1"/>
        <g id="Lightbulb">
          <g>
            <path d="M70.38,93.59,62.61,82a31.11,31.11,0,0,1-4.85-23c1.68-8.88,7.48-18,24.24-18,17.21,0,23,9,24.67,17.47a28.6,28.6,0,0,1-3.83,20.41L93.74,93.59v8.12H70.38Z" style="fill: #f39322"/>
            <rect x="69.86" y="104.59" width="23.9" height="5.5" rx="2.75" ry="2.75" style="fill: #666"/>
            <path d="M69.86,113.41h0a5.5,5.5,0,0,0,5.5,5.5h12.9a5.5,5.5,0,0,0,5.5-5.5H69.86Z" style="fill: #999"/>
            <path d="M77.25,122.54v.95A4.55,4.55,0,0,0,81.81,128h0a4.55,4.55,0,0,0,4.55-4.55v-.95Z" style="fill: #ccc"/>
            <g>
              <line x1="78.3" y1="101.71" x2="72.61" y2="74.53" style="fill: none;stroke: #000;stroke-miterlimit: 10"/>
              <line x1="85.13" y1="101.71" x2="91.1" y2="74.53" style="fill: none;stroke: #000;stroke-miterlimit: 10"/>
              <polyline points="73.84 80.4 79.44 76.52 80.43 82.21 83.99 74.53 85.13 80.08 90.09 79.11" style="fill: none;stroke: #000;stroke-miterlimit: 10"/>
            </g>
          </g>
          <g>
            <line x1="109.12" y1="85.06" x2="119.17" y2="92.45" style="fill: none;stroke: #000;stroke-linecap: round;stroke-miterlimit: 10;stroke-width: 3px"/>
            <line x1="82.2" y1="34.22" x2="82.2" y2="21.7" style="fill: none;stroke: #000;stroke-linecap: round;stroke-miterlimit: 10;stroke-width: 3px"/>
            <line x1="54.49" y1="85.06" x2="44.06" y2="92.45" style="fill: none;stroke: #000;stroke-linecap: round;stroke-miterlimit: 10;stroke-width: 3px"/>
            <line x1="41.4" y1="46.55" x2="52.6" y2="52.62" style="fill: none;stroke: #000;stroke-linecap: round;stroke-miterlimit: 10;stroke-width: 3px"/>
            <line x1="122.21" y1="46.55" x2="111.02" y2="52.62" style="fill: none;stroke: #000;stroke-linecap: round;stroke-miterlimit: 10;stroke-width: 3px"/>
            <line x1="107.17" y1="27.96" x2="99.64" y2="38.96" style="fill: none;stroke: #000;stroke-linecap: round;stroke-miterlimit: 10;stroke-width: 3px"/>
            <line x1="57.24" y1="27.96" x2="63.5" y2="38.96" style="fill: none;stroke: #000;stroke-linecap: round;stroke-miterlimit: 10;stroke-width: 3px"/>
            <line x1="127.52" y1="69.28" x2="114.15" y2="67.98" style="fill: none;stroke: #000;stroke-linecap: round;stroke-miterlimit: 10;stroke-width: 3px"/>
            <line x1="36.76" y1="68.63" x2="49.28" y2="67.98" style="fill: none;stroke: #000;stroke-linecap: round;stroke-miterlimit: 10;stroke-width: 3px"/>
          </g>
          <g>
            <circle cx="96.98" cy="110.7" r="1.11" style="fill: #f39322"/>
            <circle cx="130.28" cy="82.21" r="1.56" style="fill: #f39322"/>
            <circle cx="136.65" cy="101.04" r="6.51" style="fill: #f39322"/>
            <circle cx="139.42" cy="53.14" r="2.66" style="fill: #f39322"/>
            <circle cx="110.89" cy="20.74" r="1.56" style="fill: #f39322"/>
            <circle cx="99.64" cy="5.05" r="3.5" style="fill: #f39322"/>
            <circle cx="65.46" cy="1.56" r="1.56" style="fill: #f39322"/>
            <circle cx="60.19" cy="13.54" r="5.07" style="fill: #f39322"/>
            <circle cx="39.09" cy="34.28" r="2.2" style="fill: #f39322"/>
            <circle cx="24.74" cy="69.12" r="1.56" style="fill: #f39322"/>
            <circle cx="53.03" cy="109.26" r="1.56" style="fill: #f39322"/>
            <circle cx="26.49" cy="101.06" r="5.23" style="fill: #f39322"/>
          </g>
        </g>
        <g id="Books">
          <g>
            <path d="M116.49,169.29H57.37c-5.68,0-10.28-3.69-10.28-8.25h0c0-4.55,4.6-8.25,10.28-8.25h59.13" style="fill: #fff;stroke: #f39322;stroke-linecap: round;stroke-miterlimit: 10;stroke-width: 3px"/>
            <line x1="81.36" y1="158.98" x2="116.49" y2="158.98" style="fill: #fff;stroke: #b3b3b3;stroke-linecap: round;stroke-miterlimit: 10;stroke-width: 2px"/>
            <line x1="61.28" y1="163.1" x2="116.49" y2="163.1" style="fill: #fff;stroke: #b3b3b3;stroke-linecap: round;stroke-miterlimit: 10;stroke-width: 2px"/>
          </g>
          <g>
            <path d="M47.08,172.41h59.13c5.68,0,10.28,3.69,10.28,8.25h0c0,4.55-4.6,8.25-10.28,8.25H47.08" style="fill: #fff;stroke: #0d8ec5;stroke-linecap: round;stroke-miterlimit: 10;stroke-width: 3px"/>
            <line x1="47.08" y1="178.22" x2="102.3" y2="178.22" style="fill: #fff;stroke: #b3b3b3;stroke-linecap: round;stroke-miterlimit: 10;stroke-width: 2px"/>
            <line x1="47.08" y1="182.52" x2="82.21" y2="182.52" style="fill: #fff;stroke: #b3b3b3;stroke-linecap: round;stroke-miterlimit: 10;stroke-width: 2px"/>
          </g>
          <g>
            <path d="M47.08,133.17h59.13c5.68,0,10.28,3.69,10.28,8.25h0c0,4.55-4.6,8.25-10.28,8.25H47.08" style="fill: #fff;stroke: #e74138;stroke-linecap: round;stroke-miterlimit: 10;stroke-width: 3px"/>
            <line x1="47.08" y1="138.98" x2="102.3" y2="138.98" style="fill: #fff;stroke: #b3b3b3;stroke-linecap: round;stroke-miterlimit: 10;stroke-width: 2px"/>
            <line x1="47.08" y1="143.28" x2="82.21" y2="143.28" style="fill: #fff;stroke: #b3b3b3;stroke-linecap: round;stroke-miterlimit: 10;stroke-width: 2px"/>
          </g>
        </g>
        <g id="Phone">
          <g>
            <path d="M254.85,102.47q0,31,0,62.05a7.69,7.69,0,0,1-6.28,7.41,13.11,13.11,0,0,1-2.2.2q-25.4,0-50.8,0a8,8,0,0,1-8-7.93q.08-61.9,0-123.8a7.79,7.79,0,0,1,7.68-7.7q26-.06,51.91,0a7.79,7.79,0,0,1,7.68,7.7Q254.81,71.44,254.85,102.47ZM191,48.47V156.36h60.41V48.47Zm30.19,111.1a4.45,4.45,0,0,0-4.69,4.61,4.72,4.72,0,1,0,9.44,0A4.45,4.45,0,0,0,221.2,159.57Zm-.08-115.72H226c.52,0,.95,0,1-.73s-.36-.79-.91-.78h-9.83c-.55,0-.92.12-.91.78s.44.74,1,.73Zm-10.34-1.91c-1,0-1.33.3-1.36,1.12a1.25,1.25,0,1,0,2.51.07C211.91,42.36,211.61,41.83,210.78,41.94Zm11.51-2.86c0-.72-.36-1.18-1.09-1.17a1,1,0,0,0-1,1.09.88.88,0,0,0,1,1C221.82,40,222.23,39.77,222.29,39.08Z" style="fill: #4d4d4d"/>
            <path d="M191,48.47h60.41V156.36H191Z" style="fill: #e6e6e6"/>
            <path d="M221.2,159.57a4.45,4.45,0,0,1,4.74,4.57,4.72,4.72,0,1,1-9.44,0A4.45,4.45,0,0,1,221.2,159.57Z" style="fill: #ccc"/>
            <path d="M221.12,43.85h-4.86c-.52,0-.95-.05-1-.73s.36-.78.91-.78H226c.55,0,.92.13.91.78s-.45.73-1,.73Z" style="fill: #ccc"/>
            <path d="M210.78,41.94c.84-.11,1.13.42,1.15,1.19a1.25,1.25,0,1,1-2.51-.07C209.44,42.24,209.8,41.93,210.78,41.94Z" style="fill: #ccc"/>
            <path d="M222.29,39.08c-.05.69-.47,1-1.14.92a.88.88,0,0,1-1-1,1,1,0,0,1,1-1.09C221.93,37.89,222.25,38.36,222.29,39.08Z" style="fill: #ccc"/>
          </g>
          <g>
            <path d="M207,101.41a18.74,18.74,0,0,0-2,21.37,19.65,19.65,0,0,0,22.19,9.13c8.49-2.35,14.52-10.08,14.5-18.14a19,19,0,0,0-1.44-7.75C234.67,92.62,216.21,90.06,207,101.41Zm15.1,29a16.94,16.94,0,1,1,16.94-16.94A16.94,16.94,0,0,1,222.12,130.36Z" style="fill: none"/>
            <path d="M239.45,100.58a2,2,0,0,1-.37-1.11c0-3.38,0-6.76,0-10.14a12.92,12.92,0,0,0-5.19-10.78c-6-4.64-12.54-5.24-19.44-2.37a15,15,0,0,0-7.57,6.91c-1.69,3.11-1.45,6.47-1.4,9.84h5.16c0-.71,0-1.38,0-2.05A9.22,9.22,0,0,1,214,83.52a13,13,0,0,1,15.42-.78A9.08,9.08,0,0,1,233.69,89c.28,2.1.19,4.26.26,6.54l-.57-.29a21.91,21.91,0,0,0-26.17,3,20.61,20.61,0,0,0-1.05,28.94,21.73,21.73,0,0,0,25.52,4.92c7.25-3.59,11.38-9.47,12-17.57A20,20,0,0,0,239.45,100.58ZM227.19,131.9A19.65,19.65,0,0,1,205,122.77a18.74,18.74,0,0,1,2-21.37c9.19-11.35,27.64-8.79,33.22,4.61a19,19,0,0,1,1.44,7.75C241.7,121.82,235.68,129.55,227.19,131.9Z" style="fill: #6191a6"/>
            <path d="M221.84,105.53a.5.5,0,0,0-.49-.49,2.43,2.43,0,0,0-.91.11,1.77,1.77,0,0,0-1.26,1.15s-.07.07-.11.08l-.31.07a1.7,1.7,0,0,0-.86.57,2.08,2.08,0,0,0-.47,1.23,4.6,4.6,0,0,0,0,.57,3.8,3.8,0,0,0,.25,1l.09-.06a5,5,0,0,1,.57-.32,2,2,0,0,1,1.43,0,4,4,0,0,1,.64.33.27.27,0,0,1,.12.29.24.24,0,0,1-.4.11,1.42,1.42,0,0,0-.61-.3,2,2,0,0,0-.67-.07,1.69,1.69,0,0,0-1.31,1,1.19,1.19,0,0,0,.72,1.64l.36.15-.18.36a.89.89,0,0,0,0,1,1.43,1.43,0,0,0,1,.55c.1,0,.23,0,.29,0s.07.18.11.27a.8.8,0,0,0,.54.5,2.2,2.2,0,0,0,.75.09.66.66,0,0,0,.67-.66q0-4.15,0-8.29C221.88,106.12,221.86,105.82,221.84,105.53Zm-1.61,8a.25.25,0,0,1-.14-.27,1.83,1.83,0,0,0-.19-.84,1.2,1.2,0,0,0-.89-.65c-.27-.05-.31-.25-.23-.38a.27.27,0,0,1,.28-.1,1.69,1.69,0,0,1,1.4,1.28c.06.22.09.45.11.57C220.57,113.52,220.41,113.64,220.22,113.57Zm.56-5.93a1.41,1.41,0,0,1-1,.52l-.23,0h-.1a.23.23,0,1,1,0-.46,1.56,1.56,0,0,0,.72-.16.7.7,0,0,0,.38-.53.23.23,0,0,1,.23-.21.23.23,0,0,1,.23.24A.93.93,0,0,1,220.78,107.64Z" style="fill: #6191a6"/>
            <path d="M224.62,110.86l.54,0a2.1,2.1,0,0,0,.77-.28,1.83,1.83,0,0,0,.63-.82,2.46,2.46,0,0,0,.26-1,2.42,2.42,0,0,0-.15-1.14,1.93,1.93,0,0,0-.67-.87,1.84,1.84,0,0,0-.83-.31.16.16,0,0,1-.11-.09,1.64,1.64,0,0,0-.85-1,2.41,2.41,0,0,0-1.31-.28.44.44,0,0,0-.47.35,1.91,1.91,0,0,0-.08.48c0,2.94,0,5.88,0,8.82a.66.66,0,0,0,.7.68,1.89,1.89,0,0,0,.43-.09,1.23,1.23,0,0,0,.81-.66l-.13-.07a1.73,1.73,0,0,1-.66-.58,1.89,1.89,0,0,1-.27-1.05.23.23,0,1,1,.46,0c0,.1,0,.2,0,.3a1.17,1.17,0,0,0,.52.84.79.79,0,0,0,.49.19,3.5,3.5,0,0,0,.67-.13.67.67,0,0,0,.5-.48.94.94,0,0,0-.06-.56l-.22-.52.37-.15a1.31,1.31,0,0,0,.69-.58,1.12,1.12,0,0,0,.11-.81,3.71,3.71,0,0,0-.17-.46l-.22.21a2.28,2.28,0,0,1-1.3.54l-.43,0a.27.27,0,0,1-.32-.22A.25.25,0,0,1,224.62,110.86Zm-.32-2.21a1.6,1.6,0,0,1-.59-.9.73.73,0,0,1,0-.36.21.21,0,0,1,.28-.11.25.25,0,0,1,.16.22,1.15,1.15,0,0,0,.75,1,2.06,2.06,0,0,0,.81.16.23.23,0,1,1,0,.46h-.13A2.16,2.16,0,0,1,224.3,108.65Z" style="fill: #6191a6"/>
            <path d="M222.12,96.48a16.94,16.94,0,1,0,16.94,16.94A16.94,16.94,0,0,0,222.12,96.48Zm5.14,15.16a1.48,1.48,0,0,1-.63.95l-.35.23a2.55,2.55,0,0,1,.09.38,2,2,0,0,1,0,.55,1,1,0,0,1-.6.74,2,2,0,0,1-.77.21.31.31,0,0,0-.31.19,1.33,1.33,0,0,1-.36.49h0l1.61,6.55h-7.85l1.54-6.55h.08a1.13,1.13,0,0,1-.15-.2.47.47,0,0,0-.38-.28,1.71,1.71,0,0,1-.84-.39,1.35,1.35,0,0,1-.53-1.05,4.17,4.17,0,0,1,.09-.65l-.13-.08a1.59,1.59,0,0,1-.85-1.4,1.85,1.85,0,0,1,.32-1.08.17.17,0,0,0,0-.13,5.4,5.4,0,0,1-.34-1.2,3,3,0,0,1,0-1,2.44,2.44,0,0,1,.79-1.42,2.17,2.17,0,0,1,1-.49.16.16,0,0,0,.09-.08,2,2,0,0,1,.51-.66,2.61,2.61,0,0,1,1.08-.55l.44-.09h.66l0,0a.84.84,0,0,1,.57.34,2.9,2.9,0,0,1,.31-.24,1.82,1.82,0,0,1,.31-.12h.66l.24,0a2.66,2.66,0,0,1,1.39.69,1.86,1.86,0,0,1,.4.56.17.17,0,0,0,.1.09,2.13,2.13,0,0,1,1.25.8,2.6,2.6,0,0,1,.54,1.53,3,3,0,0,1,0,.75,8.39,8.39,0,0,1-.29,1,.28.28,0,0,0,0,.29A1.66,1.66,0,0,1,227.27,111.64Z" style="fill: #6191a6"/>
          </g>
        </g>
      </g>
    </g>
  </g>
</svg>
