<svg xmlns="http://www.w3.org/2000/svg" viewBox="0 0 1478.68 240.95"><defs><style>.cls-1{fill:#fff;}</style></defs><title>White Cloud</title><g id="Layer_2" data-name="Layer 2"><g id="Layer_1-2" data-name="Layer 1"><path class="cls-1" d="M1394.2,26.75a84.3,84.3,0,0,0-65.39,31A84.41,84.41,0,0,0,1213.62,73.9a33.09,33.09,0,0,0-56.24,4.44,84.44,84.44,0,0,0-142.75-2.08A84.46,84.46,0,0,0,883.8,70.1a50.81,50.81,0,0,0-81.43,16.6,84.45,84.45,0,0,0-91.53-2.4,33.11,33.11,0,0,0-62.43,2.47,84.38,84.38,0,0,0-89.94-3.45,84.38,84.38,0,0,0-61.63-9.07,33.1,33.1,0,0,0-64.2-3.89A84.48,84.48,0,0,0,320,90.46a33.09,33.09,0,0,0-53.79,3.17,84.49,84.49,0,0,0-100-30.81A84.48,84.48,0,1,0,115,163.26a84.46,84.46,0,0,0,130.36,47.35,48.3,48.3,0,0,0,87.92-4,84.41,84.41,0,0,0,112.25-3.9,84.44,84.44,0,0,0,112.94,26.92,84.45,84.45,0,0,0,119.26-38.45A84.49,84.49,0,0,0,829,196.82a33.1,33.1,0,0,0,58.69-9.92,84.44,84.44,0,0,0,129.75-14.24,84.47,84.47,0,0,0,138.27-3.44,33.1,33.1,0,0,0,48.37-5.13,84.47,84.47,0,0,0,141,15.87,84.47,84.47,0,1,0,49.1-153.21Z"/></g></g></svg>