<svg xmlns="http://www.w3.org/2000/svg" viewBox="0 0 350.37 215.99">
  <title>reduce-training-costs</title>
  <g id="Layer_2" data-name="Layer 2">
    <g id="Layer_1-2" data-name="Layer 1">
      <g>
        <rect id="Background" x="25.96" y="17.08" width="306.11" height="185.45" rx="27.53" ry="27.53" style="fill: #def2f9"/>
        <g id="PiggyBank">
          <path d="M350.26,160.46a8.85,8.85,0,0,0-.22-1c-.16.08-.18.12-.18.17,0,.24,0,.48,0,.73a12,12,0,0,1-1,5,4.84,4.84,0,0,1-1.51,1.85c.1-.33.17-.51.22-.69a7.17,7.17,0,0,0-.9-6.56,4.36,4.36,0,0,0-6.39-.82c-2,1.67-2.12,4.37-1.4,6.52a18.88,18.88,0,0,0,.79,1.76l-.95.24c-.06-.3-.12-.52-.14-.74a33,33,0,0,0-1.65-6.82,34.07,34.07,0,0,0-1.47-3.56,24.52,24.52,0,1,1-42.5-22.89c-.58,0-1.15.08-1.73.14a44.87,44.87,0,0,0-9.45,2,.71.71,0,0,1-.49,0c-1.49-.73-2.94-1.58-4.48-2.21-2.48-1-5-1.94-7.55-2.81-1.48-.5-3-.81-4.54-1.21a3.35,3.35,0,0,0-4.22,4.16c.23,1,.55,2,.83,2.93.89,3.06,1.76,6.12,2.68,9.18a.85.85,0,0,1-.28,1,33.92,33.92,0,0,0-4.58,5.64,33.1,33.1,0,0,0-3.41,6.58.66.66,0,0,1-.63.47c-1.64.21-3.28.52-4.93.62a5.4,5.4,0,0,0-4.78,5.31c.07,4.1,0,8.2,0,12.3a5.3,5.3,0,0,0,.47,2.41,5.15,5.15,0,0,0,3.93,3c1.8.29,3.63.45,5.45.69a.67.67,0,0,1,.42.33c1,1.92,1.83,3.9,2.91,5.75a34.47,34.47,0,0,0,6.08,7.54,1,1,0,0,1,.26.71c-.17,1.51-.4,3-.6,4.52-.35,2.67-.66,5.35-1.06,8a4.41,4.41,0,0,0,4.46,5.35q7.06,0,14.12,0a5.21,5.21,0,0,0,4.29-2.22,6,6,0,0,0,1-2.94c.09-.64.16-1.28.24-2a49.15,49.15,0,0,0,21.24-.88c.12,1,.27,1.82.33,2.7a5.39,5.39,0,0,0,5.21,5.28c4.78,0,9.55,0,14.33,0a4.3,4.3,0,0,0,4.44-4.59c-.07-1.29-.27-2.58-.45-3.86-.33-2.46-.68-4.92-1-7.38q-.39-2.9-.76-5.8a.74.74,0,0,1,.12-.5,43.93,43.93,0,0,0,3.95-6,32.53,32.53,0,0,0,3.16-8.38c.39-1.81.55-3.68.8-5.52,0-.27.09-.43.39-.51s.88-.29,1.32-.45a14,14,0,0,0,4.29-2.43,4.67,4.67,0,0,1,1.49-.92,6,6,0,0,0,3.89-4.78A13.45,13.45,0,0,0,350.26,160.46Zm-7.4,5c-.23.3-.44.61-.68.93-1-1.2-1.11-3.71,0-4.45.55-.38,1.05-.29,1.26.35A3.3,3.3,0,0,1,342.86,165.48Z" style="fill: #ff95bd"/>
          <path d="M267.51,155.6a3.23,3.23,0,0,1,3.29-3.28,3.19,3.19,0,0,1,3.29,3.28,3.29,3.29,0,1,1-6.58,0Z"/>
          <path d="M342.15,162c-1.08.75-1,3.26,0,4.45.23-.32.45-.63.68-.93a3.3,3.3,0,0,0,.56-3.17C343.21,161.67,342.7,161.58,342.15,162Z" style="fill: none"/>
          <path d="M312.13,127.8a21.09,21.09,0,1,0,21.09,21.09A21.09,21.09,0,0,0,312.13,127.8Zm7,30.94a11,11,0,0,1-3.18,1c-.45.07-.9.12-1.35.18h-1.34l-.21,0a10.82,10.82,0,0,1-4.22-1.18,9.62,9.62,0,0,1-5-6.88c0-.13-.07-.17-.2-.17h-1.87c-.13,0-.17,0-.17-.16q0-1,0-2.09c0-.12,0-.16.16-.16h1.71V147.7H301.6v-2.39h2c.17,0,.24,0,.28-.21a9.62,9.62,0,0,1,.77-2.15,10.51,10.51,0,0,1,2.92-3.61,9.81,9.81,0,0,1,4.84-2l.86-.11h1.45l.19,0a13.18,13.18,0,0,1,4,.91c.13.05.15.11.12.24-.24,1-.47,1.9-.7,2.86l-.21.82-.24-.07a10.69,10.69,0,0,0-2.36-.63,6.21,6.21,0,0,0-3.66.45,5,5,0,0,0-2.68,3.27c0,.07,0,.14-.05.23h8.41v2.39h-8.94v1.6h8.94v2.4H309c.15.44.28.85.44,1.24a4.09,4.09,0,0,0,1.18,1.59,5.29,5.29,0,0,0,2.5,1.14,8.74,8.74,0,0,0,4.45-.42c.27-.09.52-.2.8-.32l.25,1.17.52,2.38C319.21,158.58,319.25,158.67,319.11,158.74Z" style="fill: #5a8057"/>
        </g>
        <g id="Frame">
          <rect x="0.5" y="41.48" width="164.93" height="119.06" style="fill: none;stroke: #000;stroke-miterlimit: 10"/>
          <rect x="11.75" y="49.6" width="142.43" height="102.81" style="fill: none;stroke: #000;stroke-miterlimit: 10"/>
        </g>
        <g id="Hanger">
          <circle cx="82.97" cy="8.79" r="8.29" style="stroke: #000;stroke-miterlimit: 10"/>
          <polyline points="23.3 41.48 82.97 8.79 142.63 41.48" style="fill: none;stroke: #000;stroke-miterlimit: 10"/>
        </g>
        <g id="PieChart">
          <path d="M52.83,92.48,28.34,111.86A31.23,31.23,0,1,1,84.06,92.48Z" style="fill: #6ebbdc;stroke: #000;stroke-miterlimit: 10"/>
          <path d="M52.34,96.77l5.36,27.46A28,28,0,0,1,30.21,113.9Z" style="fill: #31a636;stroke: #000;stroke-miterlimit: 10"/>
          <path d="M55.53,96l28,0v0a28,28,0,0,1-22.65,27.44Z" style="fill: #f39322;stroke: #000;stroke-miterlimit: 10"/>
        </g>
        <g id="Graph">
          <rect x="101" y="108" width="10.67" height="35.41" style="fill: #d9b0dc;stroke: #000;stroke-miterlimit: 10"/>
          <rect x="116.5" y="93.53" width="10.67" height="49.88" style="fill: #c788ca;stroke: #000;stroke-miterlimit: 10"/>
          <rect x="132" y="79.3" width="10.67" height="64.12" style="fill: #b460b8;stroke: #000;stroke-miterlimit: 10"/>
        </g>
        <g id="Books">
          <rect x="157.3" y="128.63" width="69.17" height="15.32" rx="5.83" ry="5.83" style="fill: #cc7f33"/>
          <rect x="157.3" y="147.38" width="69.17" height="15.32" rx="5.83" ry="5.83" style="fill: #ffbf0b"/>
          <rect x="157.3" y="166.13" width="69.17" height="15.32" rx="5.83" ry="5.83" style="fill: #cc7f33"/>
          <rect x="157.3" y="184.87" width="69.17" height="15.32" rx="5.83" ry="5.83" style="fill: #ffbf0b"/>
        </g>
        <g id="Clock">
          <circle cx="250.16" cy="69.3" r="37.06" style="fill: #fff;stroke: #000;stroke-miterlimit: 10"/>
          <line x1="250.16" y1="36.17" x2="250.16" y2="45.96" style="fill: #fff;stroke: #000;stroke-miterlimit: 10"/>
          <line x1="274.68" y1="69.3" x2="284.46" y2="69.3" style="fill: #fff;stroke: #000;stroke-miterlimit: 10"/>
          <line x1="250.16" y1="93.51" x2="250.16" y2="103.29" style="fill: #fff;stroke: #000;stroke-miterlimit: 10"/>
          <line x1="216.18" y1="69.3" x2="225.96" y2="69.3" style="fill: #fff;stroke: #000;stroke-miterlimit: 10"/>
          <polyline points="267.21 52.25 250.16 69.3 244.38 81.75" style="fill: none;stroke: #e74138;stroke-miterlimit: 10"/>
          <circle cx="250.16" cy="69.3" r="2.58" style="fill: #f39322"/>
          <line id="seconds" x1="226.47" y1="46.73" x2="255.22" y2="73.92" style="fill: #fff;stroke: #0d8ec5;stroke-miterlimit: 10"/>
        </g>
      </g>
    </g>
  </g>
</svg>
