<svg xmlns="http://www.w3.org/2000/svg" viewBox="0 0 116.7 116.7">
  <title>24-7</title>
  <g id="Layer_2" data-name="Layer 2">
    <g id="Layer_1-2" data-name="Layer 1">
      <g>
        <g>
          <g>
            <path d="M12.74,69.45l12-11.77A14.07,14.07,0,0,0,27,54.86a6.24,6.24,0,0,0,.86-3.27,4.48,4.48,0,0,0-1.43-3.49,5.06,5.06,0,0,0-3.53-1.3,4.61,4.61,0,0,0-3.6,1.51,6.9,6.9,0,0,0-1.67,3.8l-5.14-.79a9.71,9.71,0,0,1,1.1-3.56A10,10,0,0,1,15.85,45,10.24,10.24,0,0,1,19,43.09a11.26,11.26,0,0,1,4-.68,13.23,13.23,0,0,1,3.88.57,9.83,9.83,0,0,1,3.31,1.73,8.34,8.34,0,0,1,3.16,6.78,9.51,9.51,0,0,1-.4,2.79,11,11,0,0,1-1.08,2.44,15,15,0,0,1-1.58,2.17,24.84,24.84,0,0,1-2,2l-9,8.56h14v4.83H12.74Z" style="fill: #fff"/>
            <path d="M48.86,67.83H34.51V63.18l13.21-20H54V63.31h4.35v4.52H54v6.45H48.86Zm0-18.44h-.09L40,63.31h8.91Z" style="fill: #fff"/>
          </g>
          <path d="M80.52,40.93h23.67v5.41L90.26,75.77H83.32L98,46.25H80.52Z" style="fill: #fff"/>
          <line x1="76.05" y1="34.01" x2="58.98" y2="82.69" style="fill: none;stroke: #fff;stroke-miterlimit: 10;stroke-width: 5px"/>
        </g>
        <rect x="1.5" y="1.5" width="113.7" height="113.7" rx="25.8" ry="25.8" style="fill: none;stroke: #fff;stroke-miterlimit: 10;stroke-width: 3px"/>
      </g>
    </g>
  </g>
</svg>
