<svg xmlns="http://www.w3.org/2000/svg" viewBox="0 0 116.7 116.7">
  <title>mic</title>
  <g id="Layer_2" data-name="Layer 2">
    <g id="Layer_1-2" data-name="Layer 1">
      <g>
        <rect x="1.5" y="1.5" width="113.7" height="113.7" rx="25.8" ry="25.8" style="fill: none;stroke: #fff;stroke-miterlimit: 10;stroke-width: 3px"/>
        <g id="CqXgDD">
          <g>
            <path d="M45.83,95.86c-1.12-.79-1.89-1.75-1.34-3.2s1.76-1.49,3-1.47c2,0,4,0,6.18,0,0-3.16,0-6.2-.06-9.23,0-.32-.8-.76-1.3-.89a22.87,22.87,0,0,1-13.1-8.57A23.19,23.19,0,0,1,34.92,59.1c-.08-2.44,0-4.89,0-7.33,0-1.79.93-2.78,2.42-2.72s2.13,1,2.21,2.74c.17,3.82-.06,7.71.65,11.43,2,10.47,12,14.8,20.21,13.78,10.52-1.32,16.71-8.53,16.76-19.11,0-2.17,0-4.33,0-6.5a2.28,2.28,0,0,1,4.56-.21c.07,5.09.52,10.24-1.22,15.17-2.68,7.58-8.07,12.32-15.73,14.47-1.48.42-1.91,1-1.84,2.46.12,2.59,0,5.19,0,7.92,2.2,0,4.19,0,6.18,0,1.28,0,2.5.06,3,1.47s-.23,2.41-1.33,3.2Z" style="fill: #fff"/>
            <path d="M60.17,20.83a16.08,16.08,0,0,1,8.24,4.31,14.09,14.09,0,0,1,3.94,10c0,7.78.08,15.56,0,23.34a13.88,13.88,0,0,1-12.2,13.8C52.72,73,46.39,68.67,44.7,61.55a17.69,17.69,0,0,1-.38-4c0-7.45,0-14.89,0-22.34A13.92,13.92,0,0,1,55.92,21.1a2.76,2.76,0,0,0,.59-.27ZM48.89,46.52c0,3.94-.07,7.88,0,11.82a9.5,9.5,0,0,0,9.28,9.44,9.4,9.4,0,0,0,9.54-9.16q.25-11.9,0-23.81a9.3,9.3,0,0,0-9.69-9.31c-5.21.11-9.15,4.34-9.16,9.86C48.88,39.09,48.89,42.81,48.89,46.52Z" style="fill: #fff"/>
          </g>
        </g>
      </g>
    </g>
  </g>
</svg>
