<svg xmlns="http://www.w3.org/2000/svg" viewBox="0 0 117 117">
  <title>screen-mini_2</title>
  <g id="Layer_2" data-name="Layer 2">
    <g id="Layer_1-2" data-name="Layer 1">
      <g>
        <path d="M93.15,26H23.85A3.85,3.85,0,0,0,20,29.85V75.77A3.2,3.2,0,0,0,23.17,79H51.73c0,5.32-2.11,7.82-4.27,9H43v4H74V88H70.52c-2.16-1.18-4.27-3.68-4.27-9H93.83A3.2,3.2,0,0,0,97,75.77V29.85A3.85,3.85,0,0,0,93.15,26ZM60.79,74.81A1.8,1.8,0,1,1,59,73,1.79,1.79,0,0,1,60.79,74.81ZM24,29H93V67H24Z" style="fill: #fff"/>
        <rect x="1.5" y="1.5" width="114" height="114" rx="25.8" ry="25.8" style="fill: none;stroke: #fff;stroke-miterlimit: 10;stroke-width: 3px"/>
      </g>
    </g>
  </g>
</svg>
